M48
; DRILL file {KiCad (5.1.0-0)} date Thursday, 04 April 2019 at 11:20:33 am
; FORMAT={-:-/ absolute / metric / decimal}
; #@! TF.CreationDate,2019-04-04T11:20:33+10:30
; #@! TF.GenerationSoftware,Kicad,Pcbnew,(5.1.0-0)
; #@! TF.FileFunction,Plated,1,2,PTH
FMAT,2
METRIC
T1C0.400
T2C1.000
T3C1.400
T4C1.780
T5C3.200
%
G90
G05
T1
X101.5Y-96.0
X101.5Y-98.5
X105.0Y-60.5
X105.0Y-62.5
X106.0Y-60.5
X106.0Y-62.5
X107.0Y-60.5
X107.0Y-62.5
X108.0Y-60.5
X108.0Y-62.5
X109.0Y-60.5
X109.0Y-62.5
X110.0Y-60.5
X110.0Y-62.5
X111.0Y-60.5
X111.0Y-62.5
X111.5Y-88.0
X111.5Y-101.5
X112.0Y-60.5
X112.0Y-62.5
X113.5Y-93.5
X113.5Y-94.5
X113.5Y-95.5
X113.5Y-96.5
X113.5Y-97.5
X113.5Y-98.5
X116.0Y-58.0
X116.0Y-60.0
X116.5Y-105.5
X118.5Y-73.0
X119.5Y-62.0
X119.5Y-64.0
X119.5Y-66.0
X119.5Y-68.0
X119.5Y-74.0
X119.5Y-76.0
X120.0Y-103.0
X121.0Y-104.5
X121.5Y-53.5
X124.0Y-66.0
X124.0Y-72.0
X124.0Y-85.8
X124.0Y-92.8
X124.0Y-99.0
X126.0Y-69.0
X126.5Y-93.5
X126.5Y-94.5
X126.5Y-95.5
X126.5Y-96.5
X126.5Y-97.5
X126.5Y-98.5
X129.0Y-100.0
X129.5Y-59.0
X129.5Y-71.0
X130.5Y-59.0
X130.5Y-59.0
X130.5Y-59.0
X130.5Y-71.0
X131.5Y-59.0
X131.5Y-64.0
X131.5Y-65.0
X131.5Y-66.0
X131.5Y-71.0
X132.5Y-59.0
X132.5Y-71.0
X133.5Y-59.0
X133.5Y-71.0
X136.0Y-104.6
X138.5Y-55.0
X138.5Y-62.0
X138.5Y-65.5
X138.5Y-93.5
X138.5Y-94.5
X138.5Y-95.5
X138.5Y-96.5
X138.5Y-97.5
X138.5Y-98.5
X139.5Y-66.5
X139.5Y-59.0
X139.8Y-74.2
X140.013Y-70.487
X144.5Y-62.0
X144.5Y-63.5
X144.5Y-67.0
X144.5Y-68.5
X144.5Y-70.5
X144.5Y-72.5
X145.7Y-73.9
X148.0Y-65.0
X151.5Y-80.5
X151.5Y-82.5
X151.5Y-84.5
X151.5Y-86.5
X151.5Y-88.5
X151.5Y-90.5
X151.5Y-92.5
X151.5Y-94.5
X151.5Y-96.5
X151.5Y-98.5
X155.0Y-68.5
X158.5Y-57.5
X159.4Y-76.8
X165.5Y-103.5
X166.0Y-101.0
X167.775Y-101.482
X168.5Y-82.36
X168.5Y-84.94
X168.5Y-102.5
X169.0Y-91.5
X170.5Y-91.5
X170.5Y-103.0
X171.0Y-101.5
X178.5Y-94.5
X178.5Y-96.0
X180.0Y-97.5
X180.5Y-70.5
X180.5Y-71.5
X180.5Y-74.0
X180.5Y-75.0
X181.5Y-70.5
X181.5Y-71.5
X181.5Y-74.0
X181.5Y-75.0
X182.5Y-61.5
X182.5Y-62.5
X182.5Y-63.5
X182.5Y-70.5
X182.5Y-71.5
X182.5Y-74.0
X182.5Y-75.0
X183.5Y-61.5
X183.5Y-62.5
X183.5Y-63.5
X183.5Y-70.5
X183.5Y-71.5
X183.5Y-74.0
X183.5Y-75.0
T2
X162.5Y-102.0
X144.5Y-102.0
X174.0Y-102.0
X174.0Y-92.0
X151.5Y-102.0
T3
X177.5Y-79.8
X177.5Y-84.0
X183.0Y-79.8
X183.0Y-84.0
T4
X107.32Y-66.01
X107.32Y-73.5
X110.5Y-66.01
X110.5Y-73.5
T5
X104.0Y-54.0
X184.0Y-104.0
X184.0Y-54.0
X104.0Y-104.0
T0
M30
