G04 #@! TF.GenerationSoftware,KiCad,Pcbnew,(5.1.0-0)*
G04 #@! TF.CreationDate,2019-04-04T11:20:21+10:30*
G04 #@! TF.ProjectId,wide-input-reg,77696465-2d69-46e7-9075-742d7265672e,rev?*
G04 #@! TF.SameCoordinates,Original*
G04 #@! TF.FileFunction,Copper,L2,Bot*
G04 #@! TF.FilePolarity,Positive*
%FSLAX46Y46*%
G04 Gerber Fmt 4.6, Leading zero omitted, Abs format (unit mm)*
G04 Created by KiCad (PCBNEW (5.1.0-0)) date 2019-04-04 11:20:21*
%MOMM*%
%LPD*%
G04 APERTURE LIST*
%ADD10R,0.700000X0.970000*%
%ADD11C,6.500000*%
%ADD12R,3.430000X3.780000*%
%ADD13R,3.300000X2.700000*%
%ADD14O,3.300000X2.700000*%
%ADD15C,1.500000*%
%ADD16C,0.800000*%
%ADD17C,0.250000*%
%ADD18C,0.350000*%
%ADD19C,0.400000*%
G04 APERTURE END LIST*
D10*
X168900000Y-105000000D03*
X168000000Y-105000000D03*
X167100000Y-105000000D03*
D11*
X104000000Y-54000000D03*
X184000000Y-104000000D03*
X184000000Y-54000000D03*
X104000000Y-104000000D03*
D12*
X110500000Y-73500000D03*
X110500000Y-66010000D03*
X107320000Y-73500000D03*
X107320000Y-66010000D03*
D13*
X177500000Y-84000000D03*
D14*
X177500000Y-79800000D03*
X183000000Y-84000000D03*
X183000000Y-79800000D03*
D10*
X120900000Y-105500000D03*
X120000000Y-105500000D03*
X119100000Y-105500000D03*
X172900000Y-105000000D03*
X172000000Y-105000000D03*
X171100000Y-105000000D03*
D15*
X144500000Y-102000000D03*
X162500000Y-102000000D03*
X174000000Y-102000000D03*
X174000000Y-92000000D03*
X151500000Y-102000000D03*
D16*
X131500000Y-66000000D03*
X131500000Y-64000000D03*
X131500000Y-65000000D03*
X116000000Y-58000000D03*
X116000000Y-60000000D03*
X119500000Y-64000000D03*
X119500000Y-68000000D03*
X126500000Y-93500000D03*
X126500000Y-94500000D03*
X126500000Y-95500000D03*
X126500000Y-96500000D03*
X126500000Y-97500000D03*
X126500000Y-98500000D03*
X138500000Y-93500000D03*
X138500000Y-94500000D03*
X138500000Y-95500000D03*
X138500000Y-96500000D03*
X138500000Y-97500000D03*
X138500000Y-98500000D03*
X113500000Y-93500000D03*
X113500000Y-94500000D03*
X113500000Y-95500000D03*
X113500000Y-96500000D03*
X113500000Y-97500000D03*
X113500000Y-98500000D03*
X151500000Y-92500000D03*
X151500000Y-90500000D03*
X151500000Y-86500000D03*
X151500000Y-80500000D03*
X151500000Y-82500000D03*
X151500000Y-84500000D03*
X151500000Y-88500000D03*
X151500000Y-94500000D03*
X151500000Y-96500000D03*
X151500000Y-98500000D03*
X183500000Y-75000000D03*
X182500000Y-75000000D03*
X181500000Y-75000000D03*
X180500000Y-75000000D03*
X180500000Y-74000000D03*
X181500000Y-74000000D03*
X182500000Y-74000000D03*
X183500000Y-74000000D03*
X183500000Y-71500000D03*
X182500000Y-71500000D03*
X181500000Y-71500000D03*
X180500000Y-71500000D03*
X180500000Y-70500000D03*
X181500000Y-70500000D03*
X182500000Y-70500000D03*
X183500000Y-70500000D03*
X183500000Y-61500000D03*
X183500000Y-62500000D03*
X183500000Y-63500000D03*
X182500000Y-63500000D03*
X182500000Y-62500000D03*
X182500000Y-61500000D03*
X106000000Y-62500000D03*
X107000000Y-62500000D03*
X108000000Y-62500000D03*
X109000000Y-62500000D03*
X110000000Y-62500000D03*
X111000000Y-62500000D03*
X112000000Y-62500000D03*
X112000000Y-60500000D03*
X111000000Y-60500000D03*
X110000000Y-60500000D03*
X109000000Y-60500000D03*
X108000000Y-60500000D03*
X107000000Y-60500000D03*
X106000000Y-60500000D03*
X105000000Y-60500000D03*
X105000000Y-62500000D03*
X144500000Y-68500000D03*
X144500000Y-72500000D03*
X119500000Y-74000000D03*
X131500000Y-71000000D03*
X132500000Y-71000000D03*
X133500000Y-71000000D03*
X130500000Y-71000000D03*
X129500000Y-71000000D03*
X131500000Y-59000000D03*
X132500000Y-59000000D03*
X133500000Y-59000000D03*
X130500000Y-59000000D03*
X130500000Y-59000000D03*
X130500000Y-59000000D03*
X129500000Y-59000000D03*
X144500000Y-63500000D03*
X144500000Y-67000000D03*
X101500000Y-96000000D03*
X101500000Y-98500000D03*
X180000000Y-97500000D03*
X166000000Y-101000000D03*
X124000000Y-66000000D03*
X129000000Y-100000000D03*
X119500000Y-62000000D03*
X121500000Y-53500000D03*
X111500000Y-101500000D03*
X111500000Y-88000000D03*
X165500000Y-103500000D03*
X136000000Y-104600000D03*
X118500000Y-73000000D03*
X124000000Y-72000000D03*
X119500000Y-66000000D03*
X139500042Y-59000000D03*
X139500000Y-66500004D03*
X119500000Y-76000000D03*
X126000000Y-69000000D03*
X144500000Y-62000000D03*
X124000000Y-99000000D03*
X124000000Y-85800000D03*
X124000000Y-92800000D03*
X139800000Y-74200000D03*
X159400000Y-76800000D03*
X145700000Y-73900000D03*
X116500000Y-105500000D03*
X148000000Y-65000000D03*
X138500000Y-62000000D03*
X144500000Y-70500000D03*
X155000000Y-68500000D03*
X158500000Y-57500000D03*
X138500000Y-65499985D03*
X168500000Y-82360001D03*
X170500000Y-91500000D03*
X169000000Y-91500000D03*
X168500000Y-84939999D03*
X140012653Y-70487347D03*
X138500000Y-55000000D03*
X121000000Y-104500000D03*
X120000000Y-103000000D03*
X170500000Y-103000000D03*
X171000000Y-101500000D03*
X178500000Y-94500000D03*
X167774990Y-101482102D03*
X168500000Y-102500000D03*
X178500000Y-96000000D03*
D17*
X166399999Y-102399999D02*
X166399999Y-101399999D01*
X166399999Y-101399999D02*
X166000000Y-101000000D01*
X168500000Y-103500000D02*
X167500000Y-103500000D01*
X167500000Y-103500000D02*
X166399999Y-102399999D01*
X169000000Y-104000000D02*
X168500000Y-103500000D01*
X169000000Y-104800000D02*
X169000000Y-104000000D01*
X168900000Y-104900000D02*
X169000000Y-104800000D01*
X168900000Y-105000000D02*
X168900000Y-104900000D01*
X183000000Y-105000000D02*
X184000000Y-104000000D01*
X172900000Y-105000000D02*
X183000000Y-105000000D01*
X144500000Y-68500000D02*
X144500000Y-67000000D01*
D18*
X121500000Y-60000000D02*
X119500000Y-62000000D01*
X121500000Y-53500000D02*
X121500000Y-60000000D01*
D17*
X111500000Y-101500000D02*
X111500000Y-88000000D01*
X115000000Y-101500000D02*
X111500000Y-101500000D01*
X116500000Y-100000000D02*
X115000000Y-101500000D01*
X129000000Y-100000000D02*
X116500000Y-100000000D01*
X171100000Y-105000000D02*
X171100000Y-106400000D01*
X167100000Y-106100000D02*
X167100000Y-105735000D01*
X168000000Y-107000000D02*
X167100000Y-106100000D01*
X167100000Y-105735000D02*
X167100000Y-105000000D01*
X170500000Y-107000000D02*
X168000000Y-107000000D01*
X171100000Y-106400000D02*
X170500000Y-107000000D01*
X167100000Y-105000000D02*
X166000000Y-105000000D01*
X165500000Y-104500000D02*
X165500000Y-103500000D01*
X166000000Y-105000000D02*
X165500000Y-104500000D01*
X137200000Y-105800000D02*
X164200000Y-105800000D01*
X164200000Y-105800000D02*
X165500000Y-104500000D01*
X136000000Y-104600000D02*
X137200000Y-105800000D01*
X123000000Y-73000000D02*
X123600001Y-72399999D01*
X118500000Y-73000000D02*
X123000000Y-73000000D01*
X123600001Y-72399999D02*
X124000000Y-72000000D01*
X141500000Y-71000000D02*
X141500000Y-68500004D01*
X137000000Y-65500000D02*
X138000004Y-66500004D01*
X138934315Y-66500004D02*
X139500000Y-66500004D01*
X139500000Y-72000000D02*
X140500000Y-72000000D01*
X137000000Y-61500042D02*
X137000000Y-65500000D01*
X139500042Y-59000000D02*
X137000000Y-61500042D01*
X138000004Y-66500004D02*
X138934315Y-66500004D01*
X135000000Y-67500000D02*
X139500000Y-72000000D01*
X140500000Y-72000000D02*
X141500000Y-71000000D01*
X139899999Y-66900003D02*
X139500000Y-66500004D01*
X119500000Y-66000000D02*
X121000000Y-67500000D01*
X121000000Y-67500000D02*
X135000000Y-67500000D01*
X141500000Y-68500004D02*
X139899999Y-66900003D01*
D18*
X122000000Y-76000000D02*
X120065685Y-76000000D01*
X120065685Y-76000000D02*
X119500000Y-76000000D01*
X126000000Y-72000000D02*
X122000000Y-76000000D01*
X126000000Y-69000000D02*
X126000000Y-72000000D01*
X119500000Y-76000000D02*
X119500000Y-81300000D01*
X123600001Y-85400001D02*
X124000000Y-85800000D01*
X119500000Y-81300000D02*
X123600001Y-85400001D01*
X124000000Y-99000000D02*
X124000000Y-92800000D01*
X126000000Y-69000000D02*
X134400000Y-69000000D01*
X139800000Y-74200000D02*
X134600000Y-69000000D01*
X134600000Y-69000000D02*
X126000000Y-69000000D01*
X156500000Y-73900000D02*
X145700000Y-73900000D01*
X159400000Y-76800000D02*
X156500000Y-73900000D01*
D17*
X116500000Y-105500000D02*
X117500000Y-106500000D01*
X120000000Y-106235000D02*
X119735000Y-106500000D01*
X119735000Y-106500000D02*
X117500000Y-106500000D01*
X120000000Y-105500000D02*
X120000000Y-106235000D01*
D18*
X148000000Y-65000000D02*
X141500000Y-65000000D01*
X138899999Y-62399999D02*
X138500000Y-62000000D01*
X141500000Y-65000000D02*
X138899999Y-62399999D01*
X144500000Y-70500000D02*
X146500000Y-68500000D01*
X154434315Y-68500000D02*
X155000000Y-68500000D01*
X146500000Y-68500000D02*
X154434315Y-68500000D01*
X149500000Y-66500000D02*
X158500000Y-57500000D01*
X147000000Y-66500000D02*
X149500000Y-66500000D01*
X141000000Y-66000000D02*
X146500000Y-66000000D01*
X140500000Y-65500000D02*
X141000000Y-66000000D01*
X138500015Y-65500000D02*
X140500000Y-65500000D01*
X146500000Y-66000000D02*
X147000000Y-66500000D01*
D17*
X138500000Y-65499985D02*
X138500015Y-65500000D01*
X170500000Y-84360001D02*
X168500000Y-82360001D01*
X170500000Y-91500000D02*
X170500000Y-84360001D01*
X169000000Y-85439999D02*
X168500000Y-84939999D01*
X169000000Y-91500000D02*
X169000000Y-85439999D01*
X138500000Y-55000000D02*
X138500000Y-58500000D01*
X138500000Y-58500000D02*
X136000000Y-61000000D01*
X136000000Y-66474694D02*
X140012653Y-70487347D01*
X136000000Y-61000000D02*
X136000000Y-66474694D01*
X120900000Y-104600000D02*
X121000000Y-104500000D01*
X120900000Y-105500000D02*
X120900000Y-104600000D01*
X119100000Y-105500000D02*
X119100000Y-103900000D01*
X119100000Y-103900000D02*
X119600001Y-103399999D01*
X119600001Y-103399999D02*
X120000000Y-103000000D01*
X170100001Y-103399999D02*
X170500000Y-103000000D01*
X168000000Y-106000000D02*
X168400000Y-106400000D01*
X170100001Y-106099999D02*
X170100001Y-103399999D01*
X169800000Y-106400000D02*
X170100001Y-106099999D01*
X168400000Y-106400000D02*
X169800000Y-106400000D01*
X168000000Y-105000000D02*
X168000000Y-106000000D01*
X172000000Y-102500000D02*
X171000000Y-101500000D01*
X172000000Y-105000000D02*
X172000000Y-102500000D01*
X174757092Y-94500000D02*
X178500000Y-94500000D01*
X167774990Y-101482102D02*
X174757092Y-94500000D01*
X175000000Y-96000000D02*
X178500000Y-96000000D01*
X168500000Y-102500000D02*
X175000000Y-96000000D01*
D19*
G36*
X184567139Y-51135764D02*
G01*
X185112664Y-51300468D01*
X185615818Y-51568000D01*
X186057422Y-51928163D01*
X186420662Y-52367245D01*
X186691698Y-52868515D01*
X186860207Y-53412881D01*
X186925000Y-54029337D01*
X186925001Y-103947418D01*
X186864236Y-104567138D01*
X186699532Y-105112665D01*
X186432000Y-105615817D01*
X186071835Y-106057424D01*
X185632755Y-106420662D01*
X185131485Y-106691698D01*
X184587118Y-106860208D01*
X183970663Y-106925000D01*
X172095005Y-106925000D01*
X172144393Y-106832602D01*
X172208722Y-106620538D01*
X172221595Y-106489838D01*
X172350000Y-106489838D01*
X172546034Y-106470530D01*
X172734535Y-106413349D01*
X172908258Y-106320492D01*
X173060528Y-106195528D01*
X173093433Y-106155433D01*
X173131000Y-106193000D01*
X173250000Y-106196426D01*
X173388792Y-106182756D01*
X173522251Y-106142272D01*
X173645247Y-106076529D01*
X173753054Y-105988054D01*
X173841529Y-105880247D01*
X173907272Y-105757251D01*
X173947756Y-105623792D01*
X173961426Y-105485000D01*
X173958000Y-105231000D01*
X173781000Y-105054000D01*
X173354838Y-105054000D01*
X173354838Y-104946000D01*
X173781000Y-104946000D01*
X173958000Y-104769000D01*
X173961426Y-104515000D01*
X173947756Y-104376208D01*
X173907272Y-104242749D01*
X173841529Y-104119753D01*
X173753054Y-104011946D01*
X173645247Y-103923471D01*
X173522251Y-103857728D01*
X173388792Y-103817244D01*
X173250000Y-103803574D01*
X173131000Y-103807000D01*
X173125000Y-103813000D01*
X173125000Y-103520051D01*
X173171064Y-103550830D01*
X173489544Y-103682749D01*
X173827640Y-103750000D01*
X174172360Y-103750000D01*
X174510456Y-103682749D01*
X174828936Y-103550830D01*
X175115560Y-103359314D01*
X175359314Y-103115560D01*
X175550830Y-102828936D01*
X175682749Y-102510456D01*
X175750000Y-102172360D01*
X175750000Y-101827640D01*
X175682749Y-101489544D01*
X175550830Y-101171064D01*
X175359314Y-100884440D01*
X175115560Y-100640686D01*
X174828936Y-100449170D01*
X174510456Y-100317251D01*
X174172360Y-100250000D01*
X173827640Y-100250000D01*
X173489544Y-100317251D01*
X173171064Y-100449170D01*
X172884440Y-100640686D01*
X172640686Y-100884440D01*
X172449170Y-101171064D01*
X172394365Y-101303375D01*
X172386815Y-101295825D01*
X172346199Y-101091635D01*
X172240664Y-100836851D01*
X172087451Y-100607552D01*
X172035444Y-100555545D01*
X175465990Y-97125000D01*
X177663748Y-97125000D01*
X177836851Y-97240664D01*
X178091635Y-97346199D01*
X178362112Y-97400000D01*
X178637888Y-97400000D01*
X178908365Y-97346199D01*
X179163149Y-97240664D01*
X179392448Y-97087451D01*
X179587451Y-96892448D01*
X179740664Y-96663149D01*
X179846199Y-96408365D01*
X179900000Y-96137888D01*
X179900000Y-95862112D01*
X179846199Y-95591635D01*
X179740664Y-95336851D01*
X179682632Y-95250000D01*
X179740664Y-95163149D01*
X179846199Y-94908365D01*
X179900000Y-94637888D01*
X179900000Y-94362112D01*
X179846199Y-94091635D01*
X179740664Y-93836851D01*
X179587451Y-93607552D01*
X179392448Y-93412549D01*
X179163149Y-93259336D01*
X178908365Y-93153801D01*
X178637888Y-93100000D01*
X178362112Y-93100000D01*
X178091635Y-93153801D01*
X177836851Y-93259336D01*
X177663748Y-93375000D01*
X175092084Y-93375000D01*
X175115560Y-93359314D01*
X175359314Y-93115560D01*
X175550830Y-92828936D01*
X175682749Y-92510456D01*
X175750000Y-92172360D01*
X175750000Y-91827640D01*
X175682749Y-91489544D01*
X175550830Y-91171064D01*
X175359314Y-90884440D01*
X175115560Y-90640686D01*
X174828936Y-90449170D01*
X174510456Y-90317251D01*
X174172360Y-90250000D01*
X173827640Y-90250000D01*
X173489544Y-90317251D01*
X173171064Y-90449170D01*
X172884440Y-90640686D01*
X172640686Y-90884440D01*
X172449170Y-91171064D01*
X172317251Y-91489544D01*
X172250000Y-91827640D01*
X172250000Y-92172360D01*
X172317251Y-92510456D01*
X172449170Y-92828936D01*
X172640686Y-93115560D01*
X172884440Y-93359314D01*
X173171064Y-93550830D01*
X173489544Y-93682749D01*
X173827640Y-93750000D01*
X173916102Y-93750000D01*
X167570816Y-100095287D01*
X167366625Y-100135903D01*
X167111841Y-100241438D01*
X166882542Y-100394651D01*
X166687539Y-100589654D01*
X166534326Y-100818953D01*
X166428791Y-101073737D01*
X166374990Y-101344214D01*
X166374990Y-101619990D01*
X166428791Y-101890467D01*
X166534326Y-102145251D01*
X166687539Y-102374550D01*
X166882542Y-102569553D01*
X167111841Y-102722766D01*
X167117336Y-102725042D01*
X167153801Y-102908365D01*
X167259336Y-103163149D01*
X167412549Y-103392448D01*
X167539032Y-103518931D01*
X167450000Y-103510162D01*
X166900000Y-103510162D01*
X166900000Y-103362112D01*
X166846199Y-103091635D01*
X166740664Y-102836851D01*
X166587451Y-102607552D01*
X166392448Y-102412549D01*
X166163149Y-102259336D01*
X165908365Y-102153801D01*
X165637888Y-102100000D01*
X165362112Y-102100000D01*
X165091635Y-102153801D01*
X164836851Y-102259336D01*
X164607552Y-102412549D01*
X164412549Y-102607552D01*
X164259336Y-102836851D01*
X164153801Y-103091635D01*
X164100000Y-103362112D01*
X164100000Y-103637888D01*
X164153801Y-103908365D01*
X164255389Y-104153621D01*
X163734011Y-104675000D01*
X137665990Y-104675000D01*
X137386815Y-104395825D01*
X137346199Y-104191635D01*
X137240664Y-103936851D01*
X137087451Y-103707552D01*
X136892448Y-103512549D01*
X136663149Y-103359336D01*
X136408365Y-103253801D01*
X136137888Y-103200000D01*
X135862112Y-103200000D01*
X135591635Y-103253801D01*
X135336851Y-103359336D01*
X135107552Y-103512549D01*
X134912549Y-103707552D01*
X134759336Y-103936851D01*
X134653801Y-104191635D01*
X134600000Y-104462112D01*
X134600000Y-104737888D01*
X134653801Y-105008365D01*
X134759336Y-105263149D01*
X134912549Y-105492448D01*
X135107552Y-105687451D01*
X135336851Y-105840664D01*
X135591635Y-105946199D01*
X135795825Y-105986815D01*
X136365426Y-106556416D01*
X136400656Y-106599344D01*
X136483828Y-106667601D01*
X136571958Y-106739928D01*
X136575518Y-106741831D01*
X136767398Y-106844393D01*
X136979462Y-106908722D01*
X137144736Y-106925000D01*
X121596127Y-106925000D01*
X121634535Y-106913349D01*
X121808258Y-106820492D01*
X121960528Y-106695528D01*
X122085492Y-106543258D01*
X122178349Y-106369535D01*
X122235530Y-106181034D01*
X122254838Y-105985000D01*
X122254838Y-105128930D01*
X122346199Y-104908365D01*
X122400000Y-104637888D01*
X122400000Y-104362112D01*
X122346199Y-104091635D01*
X122240664Y-103836851D01*
X122087451Y-103607552D01*
X121892448Y-103412549D01*
X121663149Y-103259336D01*
X121408365Y-103153801D01*
X121397274Y-103151595D01*
X121400000Y-103137888D01*
X121400000Y-102862112D01*
X121346199Y-102591635D01*
X121240664Y-102336851D01*
X121087451Y-102107552D01*
X120892448Y-101912549D01*
X120765373Y-101827640D01*
X142750000Y-101827640D01*
X142750000Y-102172360D01*
X142817251Y-102510456D01*
X142949170Y-102828936D01*
X143140686Y-103115560D01*
X143384440Y-103359314D01*
X143671064Y-103550830D01*
X143989544Y-103682749D01*
X144327640Y-103750000D01*
X144672360Y-103750000D01*
X145010456Y-103682749D01*
X145328936Y-103550830D01*
X145615560Y-103359314D01*
X145859314Y-103115560D01*
X145971156Y-102948176D01*
X150628192Y-102948176D01*
X150683134Y-103216189D01*
X150936096Y-103352183D01*
X151210730Y-103436213D01*
X151496479Y-103465051D01*
X151782364Y-103437587D01*
X152057398Y-103354877D01*
X152311011Y-103220101D01*
X152316866Y-103216189D01*
X152371808Y-102948176D01*
X151500000Y-102076368D01*
X150628192Y-102948176D01*
X145971156Y-102948176D01*
X146050830Y-102828936D01*
X146182749Y-102510456D01*
X146250000Y-102172360D01*
X146250000Y-101996479D01*
X150034949Y-101996479D01*
X150062413Y-102282364D01*
X150145123Y-102557398D01*
X150279899Y-102811011D01*
X150283811Y-102816866D01*
X150551824Y-102871808D01*
X151423632Y-102000000D01*
X151576368Y-102000000D01*
X152448176Y-102871808D01*
X152716189Y-102816866D01*
X152852183Y-102563904D01*
X152936213Y-102289270D01*
X152965051Y-102003521D01*
X152948155Y-101827640D01*
X160750000Y-101827640D01*
X160750000Y-102172360D01*
X160817251Y-102510456D01*
X160949170Y-102828936D01*
X161140686Y-103115560D01*
X161384440Y-103359314D01*
X161671064Y-103550830D01*
X161989544Y-103682749D01*
X162327640Y-103750000D01*
X162672360Y-103750000D01*
X163010456Y-103682749D01*
X163328936Y-103550830D01*
X163615560Y-103359314D01*
X163859314Y-103115560D01*
X164050830Y-102828936D01*
X164182749Y-102510456D01*
X164250000Y-102172360D01*
X164250000Y-101827640D01*
X164182749Y-101489544D01*
X164050830Y-101171064D01*
X163859314Y-100884440D01*
X163615560Y-100640686D01*
X163328936Y-100449170D01*
X163010456Y-100317251D01*
X162672360Y-100250000D01*
X162327640Y-100250000D01*
X161989544Y-100317251D01*
X161671064Y-100449170D01*
X161384440Y-100640686D01*
X161140686Y-100884440D01*
X160949170Y-101171064D01*
X160817251Y-101489544D01*
X160750000Y-101827640D01*
X152948155Y-101827640D01*
X152937587Y-101717636D01*
X152854877Y-101442602D01*
X152720101Y-101188989D01*
X152716189Y-101183134D01*
X152448176Y-101128192D01*
X151576368Y-102000000D01*
X151423632Y-102000000D01*
X150551824Y-101128192D01*
X150283811Y-101183134D01*
X150147817Y-101436096D01*
X150063787Y-101710730D01*
X150034949Y-101996479D01*
X146250000Y-101996479D01*
X146250000Y-101827640D01*
X146182749Y-101489544D01*
X146050830Y-101171064D01*
X145971157Y-101051824D01*
X150628192Y-101051824D01*
X151500000Y-101923632D01*
X152371808Y-101051824D01*
X152316866Y-100783811D01*
X152063904Y-100647817D01*
X151789270Y-100563787D01*
X151503521Y-100534949D01*
X151217636Y-100562413D01*
X150942602Y-100645123D01*
X150688989Y-100779899D01*
X150683134Y-100783811D01*
X150628192Y-101051824D01*
X145971157Y-101051824D01*
X145859314Y-100884440D01*
X145615560Y-100640686D01*
X145328936Y-100449170D01*
X145010456Y-100317251D01*
X144672360Y-100250000D01*
X144327640Y-100250000D01*
X143989544Y-100317251D01*
X143671064Y-100449170D01*
X143384440Y-100640686D01*
X143140686Y-100884440D01*
X142949170Y-101171064D01*
X142817251Y-101489544D01*
X142750000Y-101827640D01*
X120765373Y-101827640D01*
X120663149Y-101759336D01*
X120408365Y-101653801D01*
X120137888Y-101600000D01*
X119862112Y-101600000D01*
X119591635Y-101653801D01*
X119336851Y-101759336D01*
X119107552Y-101912549D01*
X118912549Y-102107552D01*
X118759336Y-102336851D01*
X118653801Y-102591635D01*
X118613185Y-102795826D01*
X118343585Y-103065426D01*
X118300657Y-103100656D01*
X118249371Y-103163149D01*
X118160072Y-103271960D01*
X118055607Y-103467399D01*
X118036778Y-103529470D01*
X117991278Y-103679462D01*
X117976195Y-103832601D01*
X117969557Y-103900000D01*
X117975000Y-103955261D01*
X117975000Y-104383032D01*
X117914508Y-104456742D01*
X117821651Y-104630465D01*
X117764470Y-104818966D01*
X117758474Y-104879847D01*
X117740664Y-104836851D01*
X117587451Y-104607552D01*
X117392448Y-104412549D01*
X117163149Y-104259336D01*
X116908365Y-104153801D01*
X116637888Y-104100000D01*
X116362112Y-104100000D01*
X116091635Y-104153801D01*
X115836851Y-104259336D01*
X115607552Y-104412549D01*
X115412549Y-104607552D01*
X115259336Y-104836851D01*
X115153801Y-105091635D01*
X115100000Y-105362112D01*
X115100000Y-105637888D01*
X115153801Y-105908365D01*
X115259336Y-106163149D01*
X115412549Y-106392448D01*
X115607552Y-106587451D01*
X115836851Y-106740664D01*
X116091635Y-106846199D01*
X116295825Y-106886815D01*
X116334010Y-106925000D01*
X104052571Y-106925000D01*
X103432862Y-106864236D01*
X102887335Y-106699532D01*
X102384183Y-106432000D01*
X101942576Y-106071835D01*
X101579338Y-105632755D01*
X101308302Y-105131485D01*
X101139792Y-104587118D01*
X101075000Y-103970663D01*
X101075000Y-87862112D01*
X110100000Y-87862112D01*
X110100000Y-88137888D01*
X110153801Y-88408365D01*
X110259336Y-88663149D01*
X110375001Y-88836253D01*
X110375000Y-100663748D01*
X110259336Y-100836851D01*
X110153801Y-101091635D01*
X110100000Y-101362112D01*
X110100000Y-101637888D01*
X110153801Y-101908365D01*
X110259336Y-102163149D01*
X110412549Y-102392448D01*
X110607552Y-102587451D01*
X110836851Y-102740664D01*
X111091635Y-102846199D01*
X111362112Y-102900000D01*
X111637888Y-102900000D01*
X111908365Y-102846199D01*
X112163149Y-102740664D01*
X112336252Y-102625000D01*
X114944739Y-102625000D01*
X115000000Y-102630443D01*
X115055261Y-102625000D01*
X115055264Y-102625000D01*
X115220538Y-102608722D01*
X115432602Y-102544393D01*
X115628040Y-102439929D01*
X115799344Y-102299344D01*
X115834578Y-102256411D01*
X116965990Y-101125000D01*
X128163748Y-101125000D01*
X128336851Y-101240664D01*
X128591635Y-101346199D01*
X128862112Y-101400000D01*
X129137888Y-101400000D01*
X129408365Y-101346199D01*
X129663149Y-101240664D01*
X129892448Y-101087451D01*
X130087451Y-100892448D01*
X130240664Y-100663149D01*
X130346199Y-100408365D01*
X130400000Y-100137888D01*
X130400000Y-99862112D01*
X130346199Y-99591635D01*
X130240664Y-99336851D01*
X130087451Y-99107552D01*
X129892448Y-98912549D01*
X129663149Y-98759336D01*
X129408365Y-98653801D01*
X129137888Y-98600000D01*
X128862112Y-98600000D01*
X128591635Y-98653801D01*
X128336851Y-98759336D01*
X128163748Y-98875000D01*
X125400000Y-98875000D01*
X125400000Y-98862112D01*
X125346199Y-98591635D01*
X125240664Y-98336851D01*
X125175000Y-98238578D01*
X125175000Y-93561422D01*
X125240664Y-93463149D01*
X125346199Y-93208365D01*
X125400000Y-92937888D01*
X125400000Y-92662112D01*
X125346199Y-92391635D01*
X125240664Y-92136851D01*
X125087451Y-91907552D01*
X124892448Y-91712549D01*
X124663149Y-91559336D01*
X124408365Y-91453801D01*
X124137888Y-91400000D01*
X123862112Y-91400000D01*
X123591635Y-91453801D01*
X123336851Y-91559336D01*
X123107552Y-91712549D01*
X122912549Y-91907552D01*
X122759336Y-92136851D01*
X122653801Y-92391635D01*
X122600000Y-92662112D01*
X122600000Y-92937888D01*
X122653801Y-93208365D01*
X122759336Y-93463149D01*
X122825001Y-93561423D01*
X122825000Y-98238578D01*
X122759336Y-98336851D01*
X122653801Y-98591635D01*
X122600000Y-98862112D01*
X122600000Y-98875000D01*
X116555253Y-98875000D01*
X116499999Y-98869558D01*
X116444745Y-98875000D01*
X116444736Y-98875000D01*
X116279462Y-98891278D01*
X116067398Y-98955607D01*
X115884577Y-99053327D01*
X115871958Y-99060072D01*
X115814104Y-99107552D01*
X115700656Y-99200656D01*
X115665426Y-99243584D01*
X114534011Y-100375000D01*
X112625000Y-100375000D01*
X112625000Y-88836252D01*
X112740664Y-88663149D01*
X112846199Y-88408365D01*
X112900000Y-88137888D01*
X112900000Y-87862112D01*
X112846199Y-87591635D01*
X112740664Y-87336851D01*
X112587451Y-87107552D01*
X112392448Y-86912549D01*
X112163149Y-86759336D01*
X111908365Y-86653801D01*
X111637888Y-86600000D01*
X111362112Y-86600000D01*
X111091635Y-86653801D01*
X110836851Y-86759336D01*
X110607552Y-86912549D01*
X110412549Y-87107552D01*
X110259336Y-87336851D01*
X110153801Y-87591635D01*
X110100000Y-87862112D01*
X101075000Y-87862112D01*
X101075000Y-71610000D01*
X104600162Y-71610000D01*
X104600162Y-75390000D01*
X104619470Y-75586034D01*
X104676651Y-75774535D01*
X104769508Y-75948258D01*
X104894472Y-76100528D01*
X105046742Y-76225492D01*
X105220465Y-76318349D01*
X105408966Y-76375530D01*
X105605000Y-76394838D01*
X112215000Y-76394838D01*
X112411034Y-76375530D01*
X112599535Y-76318349D01*
X112773258Y-76225492D01*
X112925528Y-76100528D01*
X113050492Y-75948258D01*
X113143349Y-75774535D01*
X113200530Y-75586034D01*
X113219838Y-75390000D01*
X113219838Y-72862112D01*
X117100000Y-72862112D01*
X117100000Y-73137888D01*
X117153801Y-73408365D01*
X117259336Y-73663149D01*
X117412549Y-73892448D01*
X117607552Y-74087451D01*
X117836851Y-74240664D01*
X118091635Y-74346199D01*
X118362112Y-74400000D01*
X118637888Y-74400000D01*
X118908365Y-74346199D01*
X119163149Y-74240664D01*
X119336252Y-74125000D01*
X122213300Y-74125000D01*
X121513300Y-74825000D01*
X120261422Y-74825000D01*
X120163149Y-74759336D01*
X119908365Y-74653801D01*
X119637888Y-74600000D01*
X119362112Y-74600000D01*
X119091635Y-74653801D01*
X118836851Y-74759336D01*
X118607552Y-74912549D01*
X118412549Y-75107552D01*
X118259336Y-75336851D01*
X118153801Y-75591635D01*
X118100000Y-75862112D01*
X118100000Y-76137888D01*
X118153801Y-76408365D01*
X118259336Y-76663149D01*
X118325000Y-76761422D01*
X118325001Y-81242278D01*
X118319316Y-81300000D01*
X118342002Y-81530340D01*
X118409189Y-81751828D01*
X118518297Y-81955953D01*
X118628336Y-82090036D01*
X118628339Y-82090039D01*
X118665131Y-82134870D01*
X118709962Y-82171662D01*
X122630743Y-86092444D01*
X122653801Y-86208365D01*
X122759336Y-86463149D01*
X122912549Y-86692448D01*
X123107552Y-86887451D01*
X123336851Y-87040664D01*
X123591635Y-87146199D01*
X123862112Y-87200000D01*
X124137888Y-87200000D01*
X124408365Y-87146199D01*
X124663149Y-87040664D01*
X124892448Y-86887451D01*
X125087451Y-86692448D01*
X125240664Y-86463149D01*
X125346199Y-86208365D01*
X125400000Y-85937888D01*
X125400000Y-85662112D01*
X125346199Y-85391635D01*
X125240664Y-85136851D01*
X125087451Y-84907552D01*
X124892448Y-84712549D01*
X124663149Y-84559336D01*
X124408365Y-84453801D01*
X124292444Y-84430743D01*
X122083814Y-82222113D01*
X167100000Y-82222113D01*
X167100000Y-82497889D01*
X167153801Y-82768366D01*
X167259336Y-83023150D01*
X167412549Y-83252449D01*
X167607552Y-83447452D01*
X167836851Y-83600665D01*
X167955956Y-83650000D01*
X167836851Y-83699335D01*
X167607552Y-83852548D01*
X167412549Y-84047551D01*
X167259336Y-84276850D01*
X167153801Y-84531634D01*
X167100000Y-84802111D01*
X167100000Y-85077887D01*
X167153801Y-85348364D01*
X167259336Y-85603148D01*
X167412549Y-85832447D01*
X167607552Y-86027450D01*
X167836851Y-86180663D01*
X167875001Y-86196465D01*
X167875000Y-90663748D01*
X167759336Y-90836851D01*
X167653801Y-91091635D01*
X167600000Y-91362112D01*
X167600000Y-91637888D01*
X167653801Y-91908365D01*
X167759336Y-92163149D01*
X167912549Y-92392448D01*
X168107552Y-92587451D01*
X168336851Y-92740664D01*
X168591635Y-92846199D01*
X168862112Y-92900000D01*
X169137888Y-92900000D01*
X169408365Y-92846199D01*
X169663149Y-92740664D01*
X169750000Y-92682632D01*
X169836851Y-92740664D01*
X170091635Y-92846199D01*
X170362112Y-92900000D01*
X170637888Y-92900000D01*
X170908365Y-92846199D01*
X171163149Y-92740664D01*
X171392448Y-92587451D01*
X171587451Y-92392448D01*
X171740664Y-92163149D01*
X171846199Y-91908365D01*
X171900000Y-91637888D01*
X171900000Y-91362112D01*
X171846199Y-91091635D01*
X171740664Y-90836851D01*
X171625000Y-90663748D01*
X171625000Y-84415262D01*
X171630443Y-84360000D01*
X171618821Y-84242003D01*
X171608722Y-84139463D01*
X171544393Y-83927399D01*
X171493015Y-83831278D01*
X171439928Y-83731959D01*
X171334572Y-83603583D01*
X171299344Y-83560657D01*
X171256416Y-83525427D01*
X170380989Y-82650000D01*
X174845162Y-82650000D01*
X174845162Y-85350000D01*
X174864470Y-85546034D01*
X174921651Y-85734535D01*
X175014508Y-85908258D01*
X175139472Y-86060528D01*
X175291742Y-86185492D01*
X175465465Y-86278349D01*
X175653966Y-86335530D01*
X175850000Y-86354838D01*
X179150000Y-86354838D01*
X179346034Y-86335530D01*
X179534535Y-86278349D01*
X179708258Y-86185492D01*
X179860528Y-86060528D01*
X179985492Y-85908258D01*
X180078349Y-85734535D01*
X180135530Y-85546034D01*
X180154838Y-85350000D01*
X180154838Y-84000000D01*
X180338630Y-84000000D01*
X180384003Y-84460680D01*
X180518379Y-84903657D01*
X180736593Y-85311907D01*
X181030259Y-85669741D01*
X181388093Y-85963407D01*
X181796343Y-86181621D01*
X182239320Y-86315997D01*
X182584558Y-86350000D01*
X183415442Y-86350000D01*
X183760680Y-86315997D01*
X184203657Y-86181621D01*
X184611907Y-85963407D01*
X184969741Y-85669741D01*
X185263407Y-85311907D01*
X185481621Y-84903657D01*
X185615997Y-84460680D01*
X185661370Y-84000000D01*
X185615997Y-83539320D01*
X185481621Y-83096343D01*
X185263407Y-82688093D01*
X184969741Y-82330259D01*
X184611907Y-82036593D01*
X184203657Y-81818379D01*
X183760680Y-81684003D01*
X183415442Y-81650000D01*
X182584558Y-81650000D01*
X182239320Y-81684003D01*
X181796343Y-81818379D01*
X181388093Y-82036593D01*
X181030259Y-82330259D01*
X180736593Y-82688093D01*
X180518379Y-83096343D01*
X180384003Y-83539320D01*
X180338630Y-84000000D01*
X180154838Y-84000000D01*
X180154838Y-82650000D01*
X180135530Y-82453966D01*
X180078349Y-82265465D01*
X179985492Y-82091742D01*
X179860528Y-81939472D01*
X179708258Y-81814508D01*
X179534535Y-81721651D01*
X179346034Y-81664470D01*
X179150000Y-81645162D01*
X175850000Y-81645162D01*
X175653966Y-81664470D01*
X175465465Y-81721651D01*
X175291742Y-81814508D01*
X175139472Y-81939472D01*
X175014508Y-82091742D01*
X174921651Y-82265465D01*
X174864470Y-82453966D01*
X174845162Y-82650000D01*
X170380989Y-82650000D01*
X169886815Y-82155827D01*
X169846199Y-81951636D01*
X169740664Y-81696852D01*
X169587451Y-81467553D01*
X169392448Y-81272550D01*
X169163149Y-81119337D01*
X168908365Y-81013802D01*
X168637888Y-80960001D01*
X168362112Y-80960001D01*
X168091635Y-81013802D01*
X167836851Y-81119337D01*
X167607552Y-81272550D01*
X167412549Y-81467553D01*
X167259336Y-81696852D01*
X167153801Y-81951636D01*
X167100000Y-82222113D01*
X122083814Y-82222113D01*
X120675000Y-80813300D01*
X120675000Y-77175000D01*
X121942288Y-77175000D01*
X122000000Y-77180684D01*
X122057712Y-77175000D01*
X122057720Y-77175000D01*
X122230340Y-77157998D01*
X122451829Y-77090811D01*
X122655953Y-76981704D01*
X122834870Y-76834870D01*
X122871667Y-76790034D01*
X126790039Y-72871662D01*
X126834870Y-72834870D01*
X126880343Y-72779462D01*
X126975798Y-72663149D01*
X126981704Y-72655953D01*
X127090811Y-72451829D01*
X127096644Y-72432601D01*
X127157998Y-72230341D01*
X127167837Y-72130443D01*
X127175000Y-72057720D01*
X127175000Y-72057713D01*
X127180684Y-72000001D01*
X127175000Y-71942289D01*
X127175000Y-70175000D01*
X134113300Y-70175000D01*
X138430743Y-74492444D01*
X138453801Y-74608365D01*
X138559336Y-74863149D01*
X138712549Y-75092448D01*
X138907552Y-75287451D01*
X139136851Y-75440664D01*
X139391635Y-75546199D01*
X139662112Y-75600000D01*
X139937888Y-75600000D01*
X140208365Y-75546199D01*
X140463149Y-75440664D01*
X140692448Y-75287451D01*
X140887451Y-75092448D01*
X141040664Y-74863149D01*
X141146199Y-74608365D01*
X141200000Y-74337888D01*
X141200000Y-74062112D01*
X141146199Y-73791635D01*
X141133971Y-73762112D01*
X144300000Y-73762112D01*
X144300000Y-74037888D01*
X144353801Y-74308365D01*
X144459336Y-74563149D01*
X144612549Y-74792448D01*
X144807552Y-74987451D01*
X145036851Y-75140664D01*
X145291635Y-75246199D01*
X145562112Y-75300000D01*
X145837888Y-75300000D01*
X146108365Y-75246199D01*
X146363149Y-75140664D01*
X146461422Y-75075000D01*
X156013300Y-75075000D01*
X158030743Y-77092444D01*
X158053801Y-77208365D01*
X158159336Y-77463149D01*
X158312549Y-77692448D01*
X158507552Y-77887451D01*
X158736851Y-78040664D01*
X158991635Y-78146199D01*
X159262112Y-78200000D01*
X159537888Y-78200000D01*
X159808365Y-78146199D01*
X160063149Y-78040664D01*
X160292448Y-77887451D01*
X160487451Y-77692448D01*
X160640664Y-77463149D01*
X160746199Y-77208365D01*
X160800000Y-76937888D01*
X160800000Y-76662112D01*
X160746199Y-76391635D01*
X160640664Y-76136851D01*
X160487451Y-75907552D01*
X160292448Y-75712549D01*
X160063149Y-75559336D01*
X159808365Y-75453801D01*
X159692444Y-75430743D01*
X157371666Y-73109966D01*
X157334870Y-73065130D01*
X157155953Y-72918296D01*
X156951829Y-72809189D01*
X156730340Y-72742002D01*
X156557720Y-72725000D01*
X156557712Y-72725000D01*
X156500000Y-72719316D01*
X156442288Y-72725000D01*
X146461422Y-72725000D01*
X146363149Y-72659336D01*
X146108365Y-72553801D01*
X145837888Y-72500000D01*
X145562112Y-72500000D01*
X145291635Y-72553801D01*
X145036851Y-72659336D01*
X144807552Y-72812549D01*
X144612549Y-73007552D01*
X144459336Y-73236851D01*
X144353801Y-73491635D01*
X144300000Y-73762112D01*
X141133971Y-73762112D01*
X141040664Y-73536851D01*
X140887451Y-73307552D01*
X140692448Y-73112549D01*
X140691065Y-73111625D01*
X140720538Y-73108722D01*
X140932602Y-73044393D01*
X141128040Y-72939929D01*
X141299344Y-72799344D01*
X141334578Y-72756411D01*
X142256416Y-71834574D01*
X142299344Y-71799344D01*
X142363965Y-71720602D01*
X142439929Y-71628041D01*
X142544393Y-71432602D01*
X142550046Y-71413966D01*
X142608722Y-71220538D01*
X142625000Y-71055264D01*
X142625000Y-71055262D01*
X142630443Y-71000000D01*
X142625000Y-70944738D01*
X142625000Y-68555265D01*
X142630443Y-68500003D01*
X142620894Y-68403054D01*
X142608722Y-68279466D01*
X142544393Y-68067402D01*
X142439929Y-67871964D01*
X142439928Y-67871962D01*
X142334572Y-67743586D01*
X142299344Y-67700660D01*
X142256416Y-67665430D01*
X141765986Y-67175000D01*
X146013300Y-67175000D01*
X146128333Y-67290033D01*
X146165130Y-67334870D01*
X146199685Y-67363228D01*
X146048171Y-67409189D01*
X145844047Y-67518296D01*
X145844045Y-67518297D01*
X145844046Y-67518297D01*
X145735289Y-67607552D01*
X145665130Y-67665130D01*
X145628338Y-67709961D01*
X144207557Y-69130743D01*
X144091635Y-69153801D01*
X143836851Y-69259336D01*
X143607552Y-69412549D01*
X143412549Y-69607552D01*
X143259336Y-69836851D01*
X143153801Y-70091635D01*
X143100000Y-70362112D01*
X143100000Y-70637888D01*
X143153801Y-70908365D01*
X143259336Y-71163149D01*
X143412549Y-71392448D01*
X143607552Y-71587451D01*
X143836851Y-71740664D01*
X144091635Y-71846199D01*
X144362112Y-71900000D01*
X144637888Y-71900000D01*
X144908365Y-71846199D01*
X145163149Y-71740664D01*
X145392448Y-71587451D01*
X145587451Y-71392448D01*
X145740664Y-71163149D01*
X145846199Y-70908365D01*
X145869257Y-70792443D01*
X146986701Y-69675000D01*
X154238578Y-69675000D01*
X154336851Y-69740664D01*
X154591635Y-69846199D01*
X154862112Y-69900000D01*
X155137888Y-69900000D01*
X155408365Y-69846199D01*
X155663149Y-69740664D01*
X155892448Y-69587451D01*
X156087451Y-69392448D01*
X156240664Y-69163149D01*
X156346199Y-68908365D01*
X156400000Y-68637888D01*
X156400000Y-68362112D01*
X156346199Y-68091635D01*
X156240664Y-67836851D01*
X156087451Y-67607552D01*
X155892448Y-67412549D01*
X155663149Y-67259336D01*
X155408365Y-67153801D01*
X155137888Y-67100000D01*
X154862112Y-67100000D01*
X154591635Y-67153801D01*
X154336851Y-67259336D01*
X154238578Y-67325000D01*
X150342970Y-67325000D01*
X150371667Y-67290033D01*
X158792444Y-58869257D01*
X158908365Y-58846199D01*
X159163149Y-58740664D01*
X159392448Y-58587451D01*
X159587451Y-58392448D01*
X159740664Y-58163149D01*
X159846199Y-57908365D01*
X159900000Y-57637888D01*
X159900000Y-57362112D01*
X159846199Y-57091635D01*
X159740664Y-56836851D01*
X159587451Y-56607552D01*
X159392448Y-56412549D01*
X159163149Y-56259336D01*
X158908365Y-56153801D01*
X158637888Y-56100000D01*
X158362112Y-56100000D01*
X158091635Y-56153801D01*
X157836851Y-56259336D01*
X157607552Y-56412549D01*
X157412549Y-56607552D01*
X157259336Y-56836851D01*
X157153801Y-57091635D01*
X157130743Y-57207556D01*
X149400000Y-64938300D01*
X149400000Y-64862112D01*
X149346199Y-64591635D01*
X149240664Y-64336851D01*
X149087451Y-64107552D01*
X148892448Y-63912549D01*
X148663149Y-63759336D01*
X148408365Y-63653801D01*
X148137888Y-63600000D01*
X147862112Y-63600000D01*
X147591635Y-63653801D01*
X147336851Y-63759336D01*
X147238578Y-63825000D01*
X141986701Y-63825000D01*
X140023813Y-61862112D01*
X143100000Y-61862112D01*
X143100000Y-62137888D01*
X143153801Y-62408365D01*
X143259336Y-62663149D01*
X143412549Y-62892448D01*
X143607552Y-63087451D01*
X143836851Y-63240664D01*
X144091635Y-63346199D01*
X144362112Y-63400000D01*
X144637888Y-63400000D01*
X144908365Y-63346199D01*
X145163149Y-63240664D01*
X145392448Y-63087451D01*
X145587451Y-62892448D01*
X145740664Y-62663149D01*
X145846199Y-62408365D01*
X145900000Y-62137888D01*
X145900000Y-61862112D01*
X145846199Y-61591635D01*
X145740664Y-61336851D01*
X145587451Y-61107552D01*
X145392448Y-60912549D01*
X145163149Y-60759336D01*
X144908365Y-60653801D01*
X144637888Y-60600000D01*
X144362112Y-60600000D01*
X144091635Y-60653801D01*
X143836851Y-60759336D01*
X143607552Y-60912549D01*
X143412549Y-61107552D01*
X143259336Y-61336851D01*
X143153801Y-61591635D01*
X143100000Y-61862112D01*
X140023813Y-61862112D01*
X139869257Y-61707557D01*
X139846199Y-61591635D01*
X139740664Y-61336851D01*
X139587451Y-61107552D01*
X139392448Y-60912549D01*
X139264185Y-60826846D01*
X139704217Y-60386815D01*
X139908407Y-60346199D01*
X140163191Y-60240664D01*
X140392490Y-60087451D01*
X140587493Y-59892448D01*
X140740706Y-59663149D01*
X140846241Y-59408365D01*
X140900042Y-59137888D01*
X140900042Y-58862112D01*
X140846241Y-58591635D01*
X140740706Y-58336851D01*
X140587493Y-58107552D01*
X140392490Y-57912549D01*
X140163191Y-57759336D01*
X139908407Y-57653801D01*
X139637930Y-57600000D01*
X139625000Y-57600000D01*
X139625000Y-55836252D01*
X139740664Y-55663149D01*
X139846199Y-55408365D01*
X139900000Y-55137888D01*
X139900000Y-54862112D01*
X139846199Y-54591635D01*
X139740664Y-54336851D01*
X139587451Y-54107552D01*
X139392448Y-53912549D01*
X139163149Y-53759336D01*
X138908365Y-53653801D01*
X138637888Y-53600000D01*
X138362112Y-53600000D01*
X138091635Y-53653801D01*
X137836851Y-53759336D01*
X137607552Y-53912549D01*
X137412549Y-54107552D01*
X137259336Y-54336851D01*
X137153801Y-54591635D01*
X137100000Y-54862112D01*
X137100000Y-55137888D01*
X137153801Y-55408365D01*
X137259336Y-55663149D01*
X137375000Y-55836252D01*
X137375001Y-58034009D01*
X135243589Y-60165422D01*
X135200656Y-60200656D01*
X135060071Y-60371960D01*
X134955607Y-60567399D01*
X134891278Y-60779463D01*
X134875000Y-60944736D01*
X134869557Y-61000000D01*
X134875000Y-61055262D01*
X134875001Y-66375000D01*
X121465990Y-66375000D01*
X120886815Y-65795825D01*
X120846199Y-65591635D01*
X120740664Y-65336851D01*
X120587451Y-65107552D01*
X120392448Y-64912549D01*
X120163149Y-64759336D01*
X119908365Y-64653801D01*
X119637888Y-64600000D01*
X119362112Y-64600000D01*
X119091635Y-64653801D01*
X118836851Y-64759336D01*
X118607552Y-64912549D01*
X118412549Y-65107552D01*
X118259336Y-65336851D01*
X118153801Y-65591635D01*
X118100000Y-65862112D01*
X118100000Y-66137888D01*
X118153801Y-66408365D01*
X118259336Y-66663149D01*
X118412549Y-66892448D01*
X118607552Y-67087451D01*
X118836851Y-67240664D01*
X119091635Y-67346199D01*
X119295825Y-67386815D01*
X120165426Y-68256416D01*
X120200656Y-68299344D01*
X120243582Y-68334572D01*
X120371958Y-68439928D01*
X120371960Y-68439929D01*
X120567398Y-68544393D01*
X120779462Y-68608722D01*
X120944736Y-68625000D01*
X120944745Y-68625000D01*
X120999999Y-68630442D01*
X121055253Y-68625000D01*
X124647164Y-68625000D01*
X124600000Y-68862112D01*
X124600000Y-69137888D01*
X124653801Y-69408365D01*
X124759336Y-69663149D01*
X124825000Y-69761422D01*
X124825001Y-70867482D01*
X124663149Y-70759336D01*
X124408365Y-70653801D01*
X124137888Y-70600000D01*
X123862112Y-70600000D01*
X123591635Y-70653801D01*
X123336851Y-70759336D01*
X123107552Y-70912549D01*
X122912549Y-71107552D01*
X122759336Y-71336851D01*
X122653801Y-71591635D01*
X122613185Y-71795826D01*
X122534011Y-71875000D01*
X119336252Y-71875000D01*
X119163149Y-71759336D01*
X118908365Y-71653801D01*
X118637888Y-71600000D01*
X118362112Y-71600000D01*
X118091635Y-71653801D01*
X117836851Y-71759336D01*
X117607552Y-71912549D01*
X117412549Y-72107552D01*
X117259336Y-72336851D01*
X117153801Y-72591635D01*
X117100000Y-72862112D01*
X113219838Y-72862112D01*
X113219838Y-71610000D01*
X113200530Y-71413966D01*
X113143349Y-71225465D01*
X113050492Y-71051742D01*
X112925528Y-70899472D01*
X112773258Y-70774508D01*
X112599535Y-70681651D01*
X112411034Y-70624470D01*
X112215000Y-70605162D01*
X105605000Y-70605162D01*
X105408966Y-70624470D01*
X105220465Y-70681651D01*
X105046742Y-70774508D01*
X104894472Y-70899472D01*
X104769508Y-71051742D01*
X104676651Y-71225465D01*
X104619470Y-71413966D01*
X104600162Y-71610000D01*
X101075000Y-71610000D01*
X101075000Y-67900000D01*
X104893574Y-67900000D01*
X104907244Y-68038792D01*
X104947728Y-68172251D01*
X105013471Y-68295247D01*
X105101946Y-68403054D01*
X105209753Y-68491529D01*
X105332749Y-68557272D01*
X105466208Y-68597756D01*
X105605000Y-68611426D01*
X107089000Y-68608000D01*
X107266000Y-68431000D01*
X107266000Y-66064000D01*
X107374000Y-66064000D01*
X107374000Y-68431000D01*
X107551000Y-68608000D01*
X108778999Y-68610835D01*
X108785000Y-68611426D01*
X108910000Y-68611137D01*
X109035000Y-68611426D01*
X109041001Y-68610835D01*
X110269000Y-68608000D01*
X110446000Y-68431000D01*
X110446000Y-66064000D01*
X110554000Y-66064000D01*
X110554000Y-68431000D01*
X110731000Y-68608000D01*
X112215000Y-68611426D01*
X112353792Y-68597756D01*
X112487251Y-68557272D01*
X112610247Y-68491529D01*
X112718054Y-68403054D01*
X112806529Y-68295247D01*
X112872272Y-68172251D01*
X112912756Y-68038792D01*
X112926426Y-67900000D01*
X112923000Y-66241000D01*
X112746000Y-66064000D01*
X110554000Y-66064000D01*
X110446000Y-66064000D01*
X107374000Y-66064000D01*
X107266000Y-66064000D01*
X105074000Y-66064000D01*
X104897000Y-66241000D01*
X104893574Y-67900000D01*
X101075000Y-67900000D01*
X101075000Y-64120000D01*
X104893574Y-64120000D01*
X104897000Y-65779000D01*
X105074000Y-65956000D01*
X107266000Y-65956000D01*
X107266000Y-63589000D01*
X107374000Y-63589000D01*
X107374000Y-65956000D01*
X110446000Y-65956000D01*
X110446000Y-63589000D01*
X110554000Y-63589000D01*
X110554000Y-65956000D01*
X112746000Y-65956000D01*
X112923000Y-65779000D01*
X112926426Y-64120000D01*
X112912756Y-63981208D01*
X112872272Y-63847749D01*
X112806529Y-63724753D01*
X112718054Y-63616946D01*
X112610247Y-63528471D01*
X112487251Y-63462728D01*
X112353792Y-63422244D01*
X112215000Y-63408574D01*
X110731000Y-63412000D01*
X110554000Y-63589000D01*
X110446000Y-63589000D01*
X110269000Y-63412000D01*
X109041001Y-63409165D01*
X109035000Y-63408574D01*
X108910000Y-63408863D01*
X108785000Y-63408574D01*
X108778999Y-63409165D01*
X107551000Y-63412000D01*
X107374000Y-63589000D01*
X107266000Y-63589000D01*
X107089000Y-63412000D01*
X105605000Y-63408574D01*
X105466208Y-63422244D01*
X105332749Y-63462728D01*
X105209753Y-63528471D01*
X105101946Y-63616946D01*
X105013471Y-63724753D01*
X104947728Y-63847749D01*
X104907244Y-63981208D01*
X104893574Y-64120000D01*
X101075000Y-64120000D01*
X101075000Y-61862112D01*
X118100000Y-61862112D01*
X118100000Y-62137888D01*
X118153801Y-62408365D01*
X118259336Y-62663149D01*
X118412549Y-62892448D01*
X118607552Y-63087451D01*
X118836851Y-63240664D01*
X119091635Y-63346199D01*
X119362112Y-63400000D01*
X119637888Y-63400000D01*
X119908365Y-63346199D01*
X120163149Y-63240664D01*
X120392448Y-63087451D01*
X120587451Y-62892448D01*
X120740664Y-62663149D01*
X120846199Y-62408365D01*
X120869257Y-62292443D01*
X122290039Y-60871662D01*
X122334870Y-60834870D01*
X122380343Y-60779462D01*
X122481703Y-60655954D01*
X122511612Y-60600000D01*
X122590811Y-60451829D01*
X122653981Y-60243583D01*
X122657998Y-60230341D01*
X122660922Y-60200656D01*
X122675000Y-60057720D01*
X122675000Y-60057713D01*
X122680684Y-60000001D01*
X122675000Y-59942289D01*
X122675000Y-54261422D01*
X122740664Y-54163149D01*
X122846199Y-53908365D01*
X122900000Y-53637888D01*
X122900000Y-53362112D01*
X122846199Y-53091635D01*
X122740664Y-52836851D01*
X122587451Y-52607552D01*
X122392448Y-52412549D01*
X122163149Y-52259336D01*
X121908365Y-52153801D01*
X121637888Y-52100000D01*
X121362112Y-52100000D01*
X121091635Y-52153801D01*
X120836851Y-52259336D01*
X120607552Y-52412549D01*
X120412549Y-52607552D01*
X120259336Y-52836851D01*
X120153801Y-53091635D01*
X120100000Y-53362112D01*
X120100000Y-53637888D01*
X120153801Y-53908365D01*
X120259336Y-54163149D01*
X120325000Y-54261422D01*
X120325001Y-59513298D01*
X119207557Y-60630743D01*
X119091635Y-60653801D01*
X118836851Y-60759336D01*
X118607552Y-60912549D01*
X118412549Y-61107552D01*
X118259336Y-61336851D01*
X118153801Y-61591635D01*
X118100000Y-61862112D01*
X101075000Y-61862112D01*
X101075000Y-54052581D01*
X101135764Y-53432861D01*
X101300468Y-52887336D01*
X101568000Y-52384182D01*
X101928163Y-51942578D01*
X102367245Y-51579338D01*
X102868515Y-51308302D01*
X103412881Y-51139793D01*
X104029337Y-51075000D01*
X183947419Y-51075000D01*
X184567139Y-51135764D01*
X184567139Y-51135764D01*
G37*
X184567139Y-51135764D02*
X185112664Y-51300468D01*
X185615818Y-51568000D01*
X186057422Y-51928163D01*
X186420662Y-52367245D01*
X186691698Y-52868515D01*
X186860207Y-53412881D01*
X186925000Y-54029337D01*
X186925001Y-103947418D01*
X186864236Y-104567138D01*
X186699532Y-105112665D01*
X186432000Y-105615817D01*
X186071835Y-106057424D01*
X185632755Y-106420662D01*
X185131485Y-106691698D01*
X184587118Y-106860208D01*
X183970663Y-106925000D01*
X172095005Y-106925000D01*
X172144393Y-106832602D01*
X172208722Y-106620538D01*
X172221595Y-106489838D01*
X172350000Y-106489838D01*
X172546034Y-106470530D01*
X172734535Y-106413349D01*
X172908258Y-106320492D01*
X173060528Y-106195528D01*
X173093433Y-106155433D01*
X173131000Y-106193000D01*
X173250000Y-106196426D01*
X173388792Y-106182756D01*
X173522251Y-106142272D01*
X173645247Y-106076529D01*
X173753054Y-105988054D01*
X173841529Y-105880247D01*
X173907272Y-105757251D01*
X173947756Y-105623792D01*
X173961426Y-105485000D01*
X173958000Y-105231000D01*
X173781000Y-105054000D01*
X173354838Y-105054000D01*
X173354838Y-104946000D01*
X173781000Y-104946000D01*
X173958000Y-104769000D01*
X173961426Y-104515000D01*
X173947756Y-104376208D01*
X173907272Y-104242749D01*
X173841529Y-104119753D01*
X173753054Y-104011946D01*
X173645247Y-103923471D01*
X173522251Y-103857728D01*
X173388792Y-103817244D01*
X173250000Y-103803574D01*
X173131000Y-103807000D01*
X173125000Y-103813000D01*
X173125000Y-103520051D01*
X173171064Y-103550830D01*
X173489544Y-103682749D01*
X173827640Y-103750000D01*
X174172360Y-103750000D01*
X174510456Y-103682749D01*
X174828936Y-103550830D01*
X175115560Y-103359314D01*
X175359314Y-103115560D01*
X175550830Y-102828936D01*
X175682749Y-102510456D01*
X175750000Y-102172360D01*
X175750000Y-101827640D01*
X175682749Y-101489544D01*
X175550830Y-101171064D01*
X175359314Y-100884440D01*
X175115560Y-100640686D01*
X174828936Y-100449170D01*
X174510456Y-100317251D01*
X174172360Y-100250000D01*
X173827640Y-100250000D01*
X173489544Y-100317251D01*
X173171064Y-100449170D01*
X172884440Y-100640686D01*
X172640686Y-100884440D01*
X172449170Y-101171064D01*
X172394365Y-101303375D01*
X172386815Y-101295825D01*
X172346199Y-101091635D01*
X172240664Y-100836851D01*
X172087451Y-100607552D01*
X172035444Y-100555545D01*
X175465990Y-97125000D01*
X177663748Y-97125000D01*
X177836851Y-97240664D01*
X178091635Y-97346199D01*
X178362112Y-97400000D01*
X178637888Y-97400000D01*
X178908365Y-97346199D01*
X179163149Y-97240664D01*
X179392448Y-97087451D01*
X179587451Y-96892448D01*
X179740664Y-96663149D01*
X179846199Y-96408365D01*
X179900000Y-96137888D01*
X179900000Y-95862112D01*
X179846199Y-95591635D01*
X179740664Y-95336851D01*
X179682632Y-95250000D01*
X179740664Y-95163149D01*
X179846199Y-94908365D01*
X179900000Y-94637888D01*
X179900000Y-94362112D01*
X179846199Y-94091635D01*
X179740664Y-93836851D01*
X179587451Y-93607552D01*
X179392448Y-93412549D01*
X179163149Y-93259336D01*
X178908365Y-93153801D01*
X178637888Y-93100000D01*
X178362112Y-93100000D01*
X178091635Y-93153801D01*
X177836851Y-93259336D01*
X177663748Y-93375000D01*
X175092084Y-93375000D01*
X175115560Y-93359314D01*
X175359314Y-93115560D01*
X175550830Y-92828936D01*
X175682749Y-92510456D01*
X175750000Y-92172360D01*
X175750000Y-91827640D01*
X175682749Y-91489544D01*
X175550830Y-91171064D01*
X175359314Y-90884440D01*
X175115560Y-90640686D01*
X174828936Y-90449170D01*
X174510456Y-90317251D01*
X174172360Y-90250000D01*
X173827640Y-90250000D01*
X173489544Y-90317251D01*
X173171064Y-90449170D01*
X172884440Y-90640686D01*
X172640686Y-90884440D01*
X172449170Y-91171064D01*
X172317251Y-91489544D01*
X172250000Y-91827640D01*
X172250000Y-92172360D01*
X172317251Y-92510456D01*
X172449170Y-92828936D01*
X172640686Y-93115560D01*
X172884440Y-93359314D01*
X173171064Y-93550830D01*
X173489544Y-93682749D01*
X173827640Y-93750000D01*
X173916102Y-93750000D01*
X167570816Y-100095287D01*
X167366625Y-100135903D01*
X167111841Y-100241438D01*
X166882542Y-100394651D01*
X166687539Y-100589654D01*
X166534326Y-100818953D01*
X166428791Y-101073737D01*
X166374990Y-101344214D01*
X166374990Y-101619990D01*
X166428791Y-101890467D01*
X166534326Y-102145251D01*
X166687539Y-102374550D01*
X166882542Y-102569553D01*
X167111841Y-102722766D01*
X167117336Y-102725042D01*
X167153801Y-102908365D01*
X167259336Y-103163149D01*
X167412549Y-103392448D01*
X167539032Y-103518931D01*
X167450000Y-103510162D01*
X166900000Y-103510162D01*
X166900000Y-103362112D01*
X166846199Y-103091635D01*
X166740664Y-102836851D01*
X166587451Y-102607552D01*
X166392448Y-102412549D01*
X166163149Y-102259336D01*
X165908365Y-102153801D01*
X165637888Y-102100000D01*
X165362112Y-102100000D01*
X165091635Y-102153801D01*
X164836851Y-102259336D01*
X164607552Y-102412549D01*
X164412549Y-102607552D01*
X164259336Y-102836851D01*
X164153801Y-103091635D01*
X164100000Y-103362112D01*
X164100000Y-103637888D01*
X164153801Y-103908365D01*
X164255389Y-104153621D01*
X163734011Y-104675000D01*
X137665990Y-104675000D01*
X137386815Y-104395825D01*
X137346199Y-104191635D01*
X137240664Y-103936851D01*
X137087451Y-103707552D01*
X136892448Y-103512549D01*
X136663149Y-103359336D01*
X136408365Y-103253801D01*
X136137888Y-103200000D01*
X135862112Y-103200000D01*
X135591635Y-103253801D01*
X135336851Y-103359336D01*
X135107552Y-103512549D01*
X134912549Y-103707552D01*
X134759336Y-103936851D01*
X134653801Y-104191635D01*
X134600000Y-104462112D01*
X134600000Y-104737888D01*
X134653801Y-105008365D01*
X134759336Y-105263149D01*
X134912549Y-105492448D01*
X135107552Y-105687451D01*
X135336851Y-105840664D01*
X135591635Y-105946199D01*
X135795825Y-105986815D01*
X136365426Y-106556416D01*
X136400656Y-106599344D01*
X136483828Y-106667601D01*
X136571958Y-106739928D01*
X136575518Y-106741831D01*
X136767398Y-106844393D01*
X136979462Y-106908722D01*
X137144736Y-106925000D01*
X121596127Y-106925000D01*
X121634535Y-106913349D01*
X121808258Y-106820492D01*
X121960528Y-106695528D01*
X122085492Y-106543258D01*
X122178349Y-106369535D01*
X122235530Y-106181034D01*
X122254838Y-105985000D01*
X122254838Y-105128930D01*
X122346199Y-104908365D01*
X122400000Y-104637888D01*
X122400000Y-104362112D01*
X122346199Y-104091635D01*
X122240664Y-103836851D01*
X122087451Y-103607552D01*
X121892448Y-103412549D01*
X121663149Y-103259336D01*
X121408365Y-103153801D01*
X121397274Y-103151595D01*
X121400000Y-103137888D01*
X121400000Y-102862112D01*
X121346199Y-102591635D01*
X121240664Y-102336851D01*
X121087451Y-102107552D01*
X120892448Y-101912549D01*
X120765373Y-101827640D01*
X142750000Y-101827640D01*
X142750000Y-102172360D01*
X142817251Y-102510456D01*
X142949170Y-102828936D01*
X143140686Y-103115560D01*
X143384440Y-103359314D01*
X143671064Y-103550830D01*
X143989544Y-103682749D01*
X144327640Y-103750000D01*
X144672360Y-103750000D01*
X145010456Y-103682749D01*
X145328936Y-103550830D01*
X145615560Y-103359314D01*
X145859314Y-103115560D01*
X145971156Y-102948176D01*
X150628192Y-102948176D01*
X150683134Y-103216189D01*
X150936096Y-103352183D01*
X151210730Y-103436213D01*
X151496479Y-103465051D01*
X151782364Y-103437587D01*
X152057398Y-103354877D01*
X152311011Y-103220101D01*
X152316866Y-103216189D01*
X152371808Y-102948176D01*
X151500000Y-102076368D01*
X150628192Y-102948176D01*
X145971156Y-102948176D01*
X146050830Y-102828936D01*
X146182749Y-102510456D01*
X146250000Y-102172360D01*
X146250000Y-101996479D01*
X150034949Y-101996479D01*
X150062413Y-102282364D01*
X150145123Y-102557398D01*
X150279899Y-102811011D01*
X150283811Y-102816866D01*
X150551824Y-102871808D01*
X151423632Y-102000000D01*
X151576368Y-102000000D01*
X152448176Y-102871808D01*
X152716189Y-102816866D01*
X152852183Y-102563904D01*
X152936213Y-102289270D01*
X152965051Y-102003521D01*
X152948155Y-101827640D01*
X160750000Y-101827640D01*
X160750000Y-102172360D01*
X160817251Y-102510456D01*
X160949170Y-102828936D01*
X161140686Y-103115560D01*
X161384440Y-103359314D01*
X161671064Y-103550830D01*
X161989544Y-103682749D01*
X162327640Y-103750000D01*
X162672360Y-103750000D01*
X163010456Y-103682749D01*
X163328936Y-103550830D01*
X163615560Y-103359314D01*
X163859314Y-103115560D01*
X164050830Y-102828936D01*
X164182749Y-102510456D01*
X164250000Y-102172360D01*
X164250000Y-101827640D01*
X164182749Y-101489544D01*
X164050830Y-101171064D01*
X163859314Y-100884440D01*
X163615560Y-100640686D01*
X163328936Y-100449170D01*
X163010456Y-100317251D01*
X162672360Y-100250000D01*
X162327640Y-100250000D01*
X161989544Y-100317251D01*
X161671064Y-100449170D01*
X161384440Y-100640686D01*
X161140686Y-100884440D01*
X160949170Y-101171064D01*
X160817251Y-101489544D01*
X160750000Y-101827640D01*
X152948155Y-101827640D01*
X152937587Y-101717636D01*
X152854877Y-101442602D01*
X152720101Y-101188989D01*
X152716189Y-101183134D01*
X152448176Y-101128192D01*
X151576368Y-102000000D01*
X151423632Y-102000000D01*
X150551824Y-101128192D01*
X150283811Y-101183134D01*
X150147817Y-101436096D01*
X150063787Y-101710730D01*
X150034949Y-101996479D01*
X146250000Y-101996479D01*
X146250000Y-101827640D01*
X146182749Y-101489544D01*
X146050830Y-101171064D01*
X145971157Y-101051824D01*
X150628192Y-101051824D01*
X151500000Y-101923632D01*
X152371808Y-101051824D01*
X152316866Y-100783811D01*
X152063904Y-100647817D01*
X151789270Y-100563787D01*
X151503521Y-100534949D01*
X151217636Y-100562413D01*
X150942602Y-100645123D01*
X150688989Y-100779899D01*
X150683134Y-100783811D01*
X150628192Y-101051824D01*
X145971157Y-101051824D01*
X145859314Y-100884440D01*
X145615560Y-100640686D01*
X145328936Y-100449170D01*
X145010456Y-100317251D01*
X144672360Y-100250000D01*
X144327640Y-100250000D01*
X143989544Y-100317251D01*
X143671064Y-100449170D01*
X143384440Y-100640686D01*
X143140686Y-100884440D01*
X142949170Y-101171064D01*
X142817251Y-101489544D01*
X142750000Y-101827640D01*
X120765373Y-101827640D01*
X120663149Y-101759336D01*
X120408365Y-101653801D01*
X120137888Y-101600000D01*
X119862112Y-101600000D01*
X119591635Y-101653801D01*
X119336851Y-101759336D01*
X119107552Y-101912549D01*
X118912549Y-102107552D01*
X118759336Y-102336851D01*
X118653801Y-102591635D01*
X118613185Y-102795826D01*
X118343585Y-103065426D01*
X118300657Y-103100656D01*
X118249371Y-103163149D01*
X118160072Y-103271960D01*
X118055607Y-103467399D01*
X118036778Y-103529470D01*
X117991278Y-103679462D01*
X117976195Y-103832601D01*
X117969557Y-103900000D01*
X117975000Y-103955261D01*
X117975000Y-104383032D01*
X117914508Y-104456742D01*
X117821651Y-104630465D01*
X117764470Y-104818966D01*
X117758474Y-104879847D01*
X117740664Y-104836851D01*
X117587451Y-104607552D01*
X117392448Y-104412549D01*
X117163149Y-104259336D01*
X116908365Y-104153801D01*
X116637888Y-104100000D01*
X116362112Y-104100000D01*
X116091635Y-104153801D01*
X115836851Y-104259336D01*
X115607552Y-104412549D01*
X115412549Y-104607552D01*
X115259336Y-104836851D01*
X115153801Y-105091635D01*
X115100000Y-105362112D01*
X115100000Y-105637888D01*
X115153801Y-105908365D01*
X115259336Y-106163149D01*
X115412549Y-106392448D01*
X115607552Y-106587451D01*
X115836851Y-106740664D01*
X116091635Y-106846199D01*
X116295825Y-106886815D01*
X116334010Y-106925000D01*
X104052571Y-106925000D01*
X103432862Y-106864236D01*
X102887335Y-106699532D01*
X102384183Y-106432000D01*
X101942576Y-106071835D01*
X101579338Y-105632755D01*
X101308302Y-105131485D01*
X101139792Y-104587118D01*
X101075000Y-103970663D01*
X101075000Y-87862112D01*
X110100000Y-87862112D01*
X110100000Y-88137888D01*
X110153801Y-88408365D01*
X110259336Y-88663149D01*
X110375001Y-88836253D01*
X110375000Y-100663748D01*
X110259336Y-100836851D01*
X110153801Y-101091635D01*
X110100000Y-101362112D01*
X110100000Y-101637888D01*
X110153801Y-101908365D01*
X110259336Y-102163149D01*
X110412549Y-102392448D01*
X110607552Y-102587451D01*
X110836851Y-102740664D01*
X111091635Y-102846199D01*
X111362112Y-102900000D01*
X111637888Y-102900000D01*
X111908365Y-102846199D01*
X112163149Y-102740664D01*
X112336252Y-102625000D01*
X114944739Y-102625000D01*
X115000000Y-102630443D01*
X115055261Y-102625000D01*
X115055264Y-102625000D01*
X115220538Y-102608722D01*
X115432602Y-102544393D01*
X115628040Y-102439929D01*
X115799344Y-102299344D01*
X115834578Y-102256411D01*
X116965990Y-101125000D01*
X128163748Y-101125000D01*
X128336851Y-101240664D01*
X128591635Y-101346199D01*
X128862112Y-101400000D01*
X129137888Y-101400000D01*
X129408365Y-101346199D01*
X129663149Y-101240664D01*
X129892448Y-101087451D01*
X130087451Y-100892448D01*
X130240664Y-100663149D01*
X130346199Y-100408365D01*
X130400000Y-100137888D01*
X130400000Y-99862112D01*
X130346199Y-99591635D01*
X130240664Y-99336851D01*
X130087451Y-99107552D01*
X129892448Y-98912549D01*
X129663149Y-98759336D01*
X129408365Y-98653801D01*
X129137888Y-98600000D01*
X128862112Y-98600000D01*
X128591635Y-98653801D01*
X128336851Y-98759336D01*
X128163748Y-98875000D01*
X125400000Y-98875000D01*
X125400000Y-98862112D01*
X125346199Y-98591635D01*
X125240664Y-98336851D01*
X125175000Y-98238578D01*
X125175000Y-93561422D01*
X125240664Y-93463149D01*
X125346199Y-93208365D01*
X125400000Y-92937888D01*
X125400000Y-92662112D01*
X125346199Y-92391635D01*
X125240664Y-92136851D01*
X125087451Y-91907552D01*
X124892448Y-91712549D01*
X124663149Y-91559336D01*
X124408365Y-91453801D01*
X124137888Y-91400000D01*
X123862112Y-91400000D01*
X123591635Y-91453801D01*
X123336851Y-91559336D01*
X123107552Y-91712549D01*
X122912549Y-91907552D01*
X122759336Y-92136851D01*
X122653801Y-92391635D01*
X122600000Y-92662112D01*
X122600000Y-92937888D01*
X122653801Y-93208365D01*
X122759336Y-93463149D01*
X122825001Y-93561423D01*
X122825000Y-98238578D01*
X122759336Y-98336851D01*
X122653801Y-98591635D01*
X122600000Y-98862112D01*
X122600000Y-98875000D01*
X116555253Y-98875000D01*
X116499999Y-98869558D01*
X116444745Y-98875000D01*
X116444736Y-98875000D01*
X116279462Y-98891278D01*
X116067398Y-98955607D01*
X115884577Y-99053327D01*
X115871958Y-99060072D01*
X115814104Y-99107552D01*
X115700656Y-99200656D01*
X115665426Y-99243584D01*
X114534011Y-100375000D01*
X112625000Y-100375000D01*
X112625000Y-88836252D01*
X112740664Y-88663149D01*
X112846199Y-88408365D01*
X112900000Y-88137888D01*
X112900000Y-87862112D01*
X112846199Y-87591635D01*
X112740664Y-87336851D01*
X112587451Y-87107552D01*
X112392448Y-86912549D01*
X112163149Y-86759336D01*
X111908365Y-86653801D01*
X111637888Y-86600000D01*
X111362112Y-86600000D01*
X111091635Y-86653801D01*
X110836851Y-86759336D01*
X110607552Y-86912549D01*
X110412549Y-87107552D01*
X110259336Y-87336851D01*
X110153801Y-87591635D01*
X110100000Y-87862112D01*
X101075000Y-87862112D01*
X101075000Y-71610000D01*
X104600162Y-71610000D01*
X104600162Y-75390000D01*
X104619470Y-75586034D01*
X104676651Y-75774535D01*
X104769508Y-75948258D01*
X104894472Y-76100528D01*
X105046742Y-76225492D01*
X105220465Y-76318349D01*
X105408966Y-76375530D01*
X105605000Y-76394838D01*
X112215000Y-76394838D01*
X112411034Y-76375530D01*
X112599535Y-76318349D01*
X112773258Y-76225492D01*
X112925528Y-76100528D01*
X113050492Y-75948258D01*
X113143349Y-75774535D01*
X113200530Y-75586034D01*
X113219838Y-75390000D01*
X113219838Y-72862112D01*
X117100000Y-72862112D01*
X117100000Y-73137888D01*
X117153801Y-73408365D01*
X117259336Y-73663149D01*
X117412549Y-73892448D01*
X117607552Y-74087451D01*
X117836851Y-74240664D01*
X118091635Y-74346199D01*
X118362112Y-74400000D01*
X118637888Y-74400000D01*
X118908365Y-74346199D01*
X119163149Y-74240664D01*
X119336252Y-74125000D01*
X122213300Y-74125000D01*
X121513300Y-74825000D01*
X120261422Y-74825000D01*
X120163149Y-74759336D01*
X119908365Y-74653801D01*
X119637888Y-74600000D01*
X119362112Y-74600000D01*
X119091635Y-74653801D01*
X118836851Y-74759336D01*
X118607552Y-74912549D01*
X118412549Y-75107552D01*
X118259336Y-75336851D01*
X118153801Y-75591635D01*
X118100000Y-75862112D01*
X118100000Y-76137888D01*
X118153801Y-76408365D01*
X118259336Y-76663149D01*
X118325000Y-76761422D01*
X118325001Y-81242278D01*
X118319316Y-81300000D01*
X118342002Y-81530340D01*
X118409189Y-81751828D01*
X118518297Y-81955953D01*
X118628336Y-82090036D01*
X118628339Y-82090039D01*
X118665131Y-82134870D01*
X118709962Y-82171662D01*
X122630743Y-86092444D01*
X122653801Y-86208365D01*
X122759336Y-86463149D01*
X122912549Y-86692448D01*
X123107552Y-86887451D01*
X123336851Y-87040664D01*
X123591635Y-87146199D01*
X123862112Y-87200000D01*
X124137888Y-87200000D01*
X124408365Y-87146199D01*
X124663149Y-87040664D01*
X124892448Y-86887451D01*
X125087451Y-86692448D01*
X125240664Y-86463149D01*
X125346199Y-86208365D01*
X125400000Y-85937888D01*
X125400000Y-85662112D01*
X125346199Y-85391635D01*
X125240664Y-85136851D01*
X125087451Y-84907552D01*
X124892448Y-84712549D01*
X124663149Y-84559336D01*
X124408365Y-84453801D01*
X124292444Y-84430743D01*
X122083814Y-82222113D01*
X167100000Y-82222113D01*
X167100000Y-82497889D01*
X167153801Y-82768366D01*
X167259336Y-83023150D01*
X167412549Y-83252449D01*
X167607552Y-83447452D01*
X167836851Y-83600665D01*
X167955956Y-83650000D01*
X167836851Y-83699335D01*
X167607552Y-83852548D01*
X167412549Y-84047551D01*
X167259336Y-84276850D01*
X167153801Y-84531634D01*
X167100000Y-84802111D01*
X167100000Y-85077887D01*
X167153801Y-85348364D01*
X167259336Y-85603148D01*
X167412549Y-85832447D01*
X167607552Y-86027450D01*
X167836851Y-86180663D01*
X167875001Y-86196465D01*
X167875000Y-90663748D01*
X167759336Y-90836851D01*
X167653801Y-91091635D01*
X167600000Y-91362112D01*
X167600000Y-91637888D01*
X167653801Y-91908365D01*
X167759336Y-92163149D01*
X167912549Y-92392448D01*
X168107552Y-92587451D01*
X168336851Y-92740664D01*
X168591635Y-92846199D01*
X168862112Y-92900000D01*
X169137888Y-92900000D01*
X169408365Y-92846199D01*
X169663149Y-92740664D01*
X169750000Y-92682632D01*
X169836851Y-92740664D01*
X170091635Y-92846199D01*
X170362112Y-92900000D01*
X170637888Y-92900000D01*
X170908365Y-92846199D01*
X171163149Y-92740664D01*
X171392448Y-92587451D01*
X171587451Y-92392448D01*
X171740664Y-92163149D01*
X171846199Y-91908365D01*
X171900000Y-91637888D01*
X171900000Y-91362112D01*
X171846199Y-91091635D01*
X171740664Y-90836851D01*
X171625000Y-90663748D01*
X171625000Y-84415262D01*
X171630443Y-84360000D01*
X171618821Y-84242003D01*
X171608722Y-84139463D01*
X171544393Y-83927399D01*
X171493015Y-83831278D01*
X171439928Y-83731959D01*
X171334572Y-83603583D01*
X171299344Y-83560657D01*
X171256416Y-83525427D01*
X170380989Y-82650000D01*
X174845162Y-82650000D01*
X174845162Y-85350000D01*
X174864470Y-85546034D01*
X174921651Y-85734535D01*
X175014508Y-85908258D01*
X175139472Y-86060528D01*
X175291742Y-86185492D01*
X175465465Y-86278349D01*
X175653966Y-86335530D01*
X175850000Y-86354838D01*
X179150000Y-86354838D01*
X179346034Y-86335530D01*
X179534535Y-86278349D01*
X179708258Y-86185492D01*
X179860528Y-86060528D01*
X179985492Y-85908258D01*
X180078349Y-85734535D01*
X180135530Y-85546034D01*
X180154838Y-85350000D01*
X180154838Y-84000000D01*
X180338630Y-84000000D01*
X180384003Y-84460680D01*
X180518379Y-84903657D01*
X180736593Y-85311907D01*
X181030259Y-85669741D01*
X181388093Y-85963407D01*
X181796343Y-86181621D01*
X182239320Y-86315997D01*
X182584558Y-86350000D01*
X183415442Y-86350000D01*
X183760680Y-86315997D01*
X184203657Y-86181621D01*
X184611907Y-85963407D01*
X184969741Y-85669741D01*
X185263407Y-85311907D01*
X185481621Y-84903657D01*
X185615997Y-84460680D01*
X185661370Y-84000000D01*
X185615997Y-83539320D01*
X185481621Y-83096343D01*
X185263407Y-82688093D01*
X184969741Y-82330259D01*
X184611907Y-82036593D01*
X184203657Y-81818379D01*
X183760680Y-81684003D01*
X183415442Y-81650000D01*
X182584558Y-81650000D01*
X182239320Y-81684003D01*
X181796343Y-81818379D01*
X181388093Y-82036593D01*
X181030259Y-82330259D01*
X180736593Y-82688093D01*
X180518379Y-83096343D01*
X180384003Y-83539320D01*
X180338630Y-84000000D01*
X180154838Y-84000000D01*
X180154838Y-82650000D01*
X180135530Y-82453966D01*
X180078349Y-82265465D01*
X179985492Y-82091742D01*
X179860528Y-81939472D01*
X179708258Y-81814508D01*
X179534535Y-81721651D01*
X179346034Y-81664470D01*
X179150000Y-81645162D01*
X175850000Y-81645162D01*
X175653966Y-81664470D01*
X175465465Y-81721651D01*
X175291742Y-81814508D01*
X175139472Y-81939472D01*
X175014508Y-82091742D01*
X174921651Y-82265465D01*
X174864470Y-82453966D01*
X174845162Y-82650000D01*
X170380989Y-82650000D01*
X169886815Y-82155827D01*
X169846199Y-81951636D01*
X169740664Y-81696852D01*
X169587451Y-81467553D01*
X169392448Y-81272550D01*
X169163149Y-81119337D01*
X168908365Y-81013802D01*
X168637888Y-80960001D01*
X168362112Y-80960001D01*
X168091635Y-81013802D01*
X167836851Y-81119337D01*
X167607552Y-81272550D01*
X167412549Y-81467553D01*
X167259336Y-81696852D01*
X167153801Y-81951636D01*
X167100000Y-82222113D01*
X122083814Y-82222113D01*
X120675000Y-80813300D01*
X120675000Y-77175000D01*
X121942288Y-77175000D01*
X122000000Y-77180684D01*
X122057712Y-77175000D01*
X122057720Y-77175000D01*
X122230340Y-77157998D01*
X122451829Y-77090811D01*
X122655953Y-76981704D01*
X122834870Y-76834870D01*
X122871667Y-76790034D01*
X126790039Y-72871662D01*
X126834870Y-72834870D01*
X126880343Y-72779462D01*
X126975798Y-72663149D01*
X126981704Y-72655953D01*
X127090811Y-72451829D01*
X127096644Y-72432601D01*
X127157998Y-72230341D01*
X127167837Y-72130443D01*
X127175000Y-72057720D01*
X127175000Y-72057713D01*
X127180684Y-72000001D01*
X127175000Y-71942289D01*
X127175000Y-70175000D01*
X134113300Y-70175000D01*
X138430743Y-74492444D01*
X138453801Y-74608365D01*
X138559336Y-74863149D01*
X138712549Y-75092448D01*
X138907552Y-75287451D01*
X139136851Y-75440664D01*
X139391635Y-75546199D01*
X139662112Y-75600000D01*
X139937888Y-75600000D01*
X140208365Y-75546199D01*
X140463149Y-75440664D01*
X140692448Y-75287451D01*
X140887451Y-75092448D01*
X141040664Y-74863149D01*
X141146199Y-74608365D01*
X141200000Y-74337888D01*
X141200000Y-74062112D01*
X141146199Y-73791635D01*
X141133971Y-73762112D01*
X144300000Y-73762112D01*
X144300000Y-74037888D01*
X144353801Y-74308365D01*
X144459336Y-74563149D01*
X144612549Y-74792448D01*
X144807552Y-74987451D01*
X145036851Y-75140664D01*
X145291635Y-75246199D01*
X145562112Y-75300000D01*
X145837888Y-75300000D01*
X146108365Y-75246199D01*
X146363149Y-75140664D01*
X146461422Y-75075000D01*
X156013300Y-75075000D01*
X158030743Y-77092444D01*
X158053801Y-77208365D01*
X158159336Y-77463149D01*
X158312549Y-77692448D01*
X158507552Y-77887451D01*
X158736851Y-78040664D01*
X158991635Y-78146199D01*
X159262112Y-78200000D01*
X159537888Y-78200000D01*
X159808365Y-78146199D01*
X160063149Y-78040664D01*
X160292448Y-77887451D01*
X160487451Y-77692448D01*
X160640664Y-77463149D01*
X160746199Y-77208365D01*
X160800000Y-76937888D01*
X160800000Y-76662112D01*
X160746199Y-76391635D01*
X160640664Y-76136851D01*
X160487451Y-75907552D01*
X160292448Y-75712549D01*
X160063149Y-75559336D01*
X159808365Y-75453801D01*
X159692444Y-75430743D01*
X157371666Y-73109966D01*
X157334870Y-73065130D01*
X157155953Y-72918296D01*
X156951829Y-72809189D01*
X156730340Y-72742002D01*
X156557720Y-72725000D01*
X156557712Y-72725000D01*
X156500000Y-72719316D01*
X156442288Y-72725000D01*
X146461422Y-72725000D01*
X146363149Y-72659336D01*
X146108365Y-72553801D01*
X145837888Y-72500000D01*
X145562112Y-72500000D01*
X145291635Y-72553801D01*
X145036851Y-72659336D01*
X144807552Y-72812549D01*
X144612549Y-73007552D01*
X144459336Y-73236851D01*
X144353801Y-73491635D01*
X144300000Y-73762112D01*
X141133971Y-73762112D01*
X141040664Y-73536851D01*
X140887451Y-73307552D01*
X140692448Y-73112549D01*
X140691065Y-73111625D01*
X140720538Y-73108722D01*
X140932602Y-73044393D01*
X141128040Y-72939929D01*
X141299344Y-72799344D01*
X141334578Y-72756411D01*
X142256416Y-71834574D01*
X142299344Y-71799344D01*
X142363965Y-71720602D01*
X142439929Y-71628041D01*
X142544393Y-71432602D01*
X142550046Y-71413966D01*
X142608722Y-71220538D01*
X142625000Y-71055264D01*
X142625000Y-71055262D01*
X142630443Y-71000000D01*
X142625000Y-70944738D01*
X142625000Y-68555265D01*
X142630443Y-68500003D01*
X142620894Y-68403054D01*
X142608722Y-68279466D01*
X142544393Y-68067402D01*
X142439929Y-67871964D01*
X142439928Y-67871962D01*
X142334572Y-67743586D01*
X142299344Y-67700660D01*
X142256416Y-67665430D01*
X141765986Y-67175000D01*
X146013300Y-67175000D01*
X146128333Y-67290033D01*
X146165130Y-67334870D01*
X146199685Y-67363228D01*
X146048171Y-67409189D01*
X145844047Y-67518296D01*
X145844045Y-67518297D01*
X145844046Y-67518297D01*
X145735289Y-67607552D01*
X145665130Y-67665130D01*
X145628338Y-67709961D01*
X144207557Y-69130743D01*
X144091635Y-69153801D01*
X143836851Y-69259336D01*
X143607552Y-69412549D01*
X143412549Y-69607552D01*
X143259336Y-69836851D01*
X143153801Y-70091635D01*
X143100000Y-70362112D01*
X143100000Y-70637888D01*
X143153801Y-70908365D01*
X143259336Y-71163149D01*
X143412549Y-71392448D01*
X143607552Y-71587451D01*
X143836851Y-71740664D01*
X144091635Y-71846199D01*
X144362112Y-71900000D01*
X144637888Y-71900000D01*
X144908365Y-71846199D01*
X145163149Y-71740664D01*
X145392448Y-71587451D01*
X145587451Y-71392448D01*
X145740664Y-71163149D01*
X145846199Y-70908365D01*
X145869257Y-70792443D01*
X146986701Y-69675000D01*
X154238578Y-69675000D01*
X154336851Y-69740664D01*
X154591635Y-69846199D01*
X154862112Y-69900000D01*
X155137888Y-69900000D01*
X155408365Y-69846199D01*
X155663149Y-69740664D01*
X155892448Y-69587451D01*
X156087451Y-69392448D01*
X156240664Y-69163149D01*
X156346199Y-68908365D01*
X156400000Y-68637888D01*
X156400000Y-68362112D01*
X156346199Y-68091635D01*
X156240664Y-67836851D01*
X156087451Y-67607552D01*
X155892448Y-67412549D01*
X155663149Y-67259336D01*
X155408365Y-67153801D01*
X155137888Y-67100000D01*
X154862112Y-67100000D01*
X154591635Y-67153801D01*
X154336851Y-67259336D01*
X154238578Y-67325000D01*
X150342970Y-67325000D01*
X150371667Y-67290033D01*
X158792444Y-58869257D01*
X158908365Y-58846199D01*
X159163149Y-58740664D01*
X159392448Y-58587451D01*
X159587451Y-58392448D01*
X159740664Y-58163149D01*
X159846199Y-57908365D01*
X159900000Y-57637888D01*
X159900000Y-57362112D01*
X159846199Y-57091635D01*
X159740664Y-56836851D01*
X159587451Y-56607552D01*
X159392448Y-56412549D01*
X159163149Y-56259336D01*
X158908365Y-56153801D01*
X158637888Y-56100000D01*
X158362112Y-56100000D01*
X158091635Y-56153801D01*
X157836851Y-56259336D01*
X157607552Y-56412549D01*
X157412549Y-56607552D01*
X157259336Y-56836851D01*
X157153801Y-57091635D01*
X157130743Y-57207556D01*
X149400000Y-64938300D01*
X149400000Y-64862112D01*
X149346199Y-64591635D01*
X149240664Y-64336851D01*
X149087451Y-64107552D01*
X148892448Y-63912549D01*
X148663149Y-63759336D01*
X148408365Y-63653801D01*
X148137888Y-63600000D01*
X147862112Y-63600000D01*
X147591635Y-63653801D01*
X147336851Y-63759336D01*
X147238578Y-63825000D01*
X141986701Y-63825000D01*
X140023813Y-61862112D01*
X143100000Y-61862112D01*
X143100000Y-62137888D01*
X143153801Y-62408365D01*
X143259336Y-62663149D01*
X143412549Y-62892448D01*
X143607552Y-63087451D01*
X143836851Y-63240664D01*
X144091635Y-63346199D01*
X144362112Y-63400000D01*
X144637888Y-63400000D01*
X144908365Y-63346199D01*
X145163149Y-63240664D01*
X145392448Y-63087451D01*
X145587451Y-62892448D01*
X145740664Y-62663149D01*
X145846199Y-62408365D01*
X145900000Y-62137888D01*
X145900000Y-61862112D01*
X145846199Y-61591635D01*
X145740664Y-61336851D01*
X145587451Y-61107552D01*
X145392448Y-60912549D01*
X145163149Y-60759336D01*
X144908365Y-60653801D01*
X144637888Y-60600000D01*
X144362112Y-60600000D01*
X144091635Y-60653801D01*
X143836851Y-60759336D01*
X143607552Y-60912549D01*
X143412549Y-61107552D01*
X143259336Y-61336851D01*
X143153801Y-61591635D01*
X143100000Y-61862112D01*
X140023813Y-61862112D01*
X139869257Y-61707557D01*
X139846199Y-61591635D01*
X139740664Y-61336851D01*
X139587451Y-61107552D01*
X139392448Y-60912549D01*
X139264185Y-60826846D01*
X139704217Y-60386815D01*
X139908407Y-60346199D01*
X140163191Y-60240664D01*
X140392490Y-60087451D01*
X140587493Y-59892448D01*
X140740706Y-59663149D01*
X140846241Y-59408365D01*
X140900042Y-59137888D01*
X140900042Y-58862112D01*
X140846241Y-58591635D01*
X140740706Y-58336851D01*
X140587493Y-58107552D01*
X140392490Y-57912549D01*
X140163191Y-57759336D01*
X139908407Y-57653801D01*
X139637930Y-57600000D01*
X139625000Y-57600000D01*
X139625000Y-55836252D01*
X139740664Y-55663149D01*
X139846199Y-55408365D01*
X139900000Y-55137888D01*
X139900000Y-54862112D01*
X139846199Y-54591635D01*
X139740664Y-54336851D01*
X139587451Y-54107552D01*
X139392448Y-53912549D01*
X139163149Y-53759336D01*
X138908365Y-53653801D01*
X138637888Y-53600000D01*
X138362112Y-53600000D01*
X138091635Y-53653801D01*
X137836851Y-53759336D01*
X137607552Y-53912549D01*
X137412549Y-54107552D01*
X137259336Y-54336851D01*
X137153801Y-54591635D01*
X137100000Y-54862112D01*
X137100000Y-55137888D01*
X137153801Y-55408365D01*
X137259336Y-55663149D01*
X137375000Y-55836252D01*
X137375001Y-58034009D01*
X135243589Y-60165422D01*
X135200656Y-60200656D01*
X135060071Y-60371960D01*
X134955607Y-60567399D01*
X134891278Y-60779463D01*
X134875000Y-60944736D01*
X134869557Y-61000000D01*
X134875000Y-61055262D01*
X134875001Y-66375000D01*
X121465990Y-66375000D01*
X120886815Y-65795825D01*
X120846199Y-65591635D01*
X120740664Y-65336851D01*
X120587451Y-65107552D01*
X120392448Y-64912549D01*
X120163149Y-64759336D01*
X119908365Y-64653801D01*
X119637888Y-64600000D01*
X119362112Y-64600000D01*
X119091635Y-64653801D01*
X118836851Y-64759336D01*
X118607552Y-64912549D01*
X118412549Y-65107552D01*
X118259336Y-65336851D01*
X118153801Y-65591635D01*
X118100000Y-65862112D01*
X118100000Y-66137888D01*
X118153801Y-66408365D01*
X118259336Y-66663149D01*
X118412549Y-66892448D01*
X118607552Y-67087451D01*
X118836851Y-67240664D01*
X119091635Y-67346199D01*
X119295825Y-67386815D01*
X120165426Y-68256416D01*
X120200656Y-68299344D01*
X120243582Y-68334572D01*
X120371958Y-68439928D01*
X120371960Y-68439929D01*
X120567398Y-68544393D01*
X120779462Y-68608722D01*
X120944736Y-68625000D01*
X120944745Y-68625000D01*
X120999999Y-68630442D01*
X121055253Y-68625000D01*
X124647164Y-68625000D01*
X124600000Y-68862112D01*
X124600000Y-69137888D01*
X124653801Y-69408365D01*
X124759336Y-69663149D01*
X124825000Y-69761422D01*
X124825001Y-70867482D01*
X124663149Y-70759336D01*
X124408365Y-70653801D01*
X124137888Y-70600000D01*
X123862112Y-70600000D01*
X123591635Y-70653801D01*
X123336851Y-70759336D01*
X123107552Y-70912549D01*
X122912549Y-71107552D01*
X122759336Y-71336851D01*
X122653801Y-71591635D01*
X122613185Y-71795826D01*
X122534011Y-71875000D01*
X119336252Y-71875000D01*
X119163149Y-71759336D01*
X118908365Y-71653801D01*
X118637888Y-71600000D01*
X118362112Y-71600000D01*
X118091635Y-71653801D01*
X117836851Y-71759336D01*
X117607552Y-71912549D01*
X117412549Y-72107552D01*
X117259336Y-72336851D01*
X117153801Y-72591635D01*
X117100000Y-72862112D01*
X113219838Y-72862112D01*
X113219838Y-71610000D01*
X113200530Y-71413966D01*
X113143349Y-71225465D01*
X113050492Y-71051742D01*
X112925528Y-70899472D01*
X112773258Y-70774508D01*
X112599535Y-70681651D01*
X112411034Y-70624470D01*
X112215000Y-70605162D01*
X105605000Y-70605162D01*
X105408966Y-70624470D01*
X105220465Y-70681651D01*
X105046742Y-70774508D01*
X104894472Y-70899472D01*
X104769508Y-71051742D01*
X104676651Y-71225465D01*
X104619470Y-71413966D01*
X104600162Y-71610000D01*
X101075000Y-71610000D01*
X101075000Y-67900000D01*
X104893574Y-67900000D01*
X104907244Y-68038792D01*
X104947728Y-68172251D01*
X105013471Y-68295247D01*
X105101946Y-68403054D01*
X105209753Y-68491529D01*
X105332749Y-68557272D01*
X105466208Y-68597756D01*
X105605000Y-68611426D01*
X107089000Y-68608000D01*
X107266000Y-68431000D01*
X107266000Y-66064000D01*
X107374000Y-66064000D01*
X107374000Y-68431000D01*
X107551000Y-68608000D01*
X108778999Y-68610835D01*
X108785000Y-68611426D01*
X108910000Y-68611137D01*
X109035000Y-68611426D01*
X109041001Y-68610835D01*
X110269000Y-68608000D01*
X110446000Y-68431000D01*
X110446000Y-66064000D01*
X110554000Y-66064000D01*
X110554000Y-68431000D01*
X110731000Y-68608000D01*
X112215000Y-68611426D01*
X112353792Y-68597756D01*
X112487251Y-68557272D01*
X112610247Y-68491529D01*
X112718054Y-68403054D01*
X112806529Y-68295247D01*
X112872272Y-68172251D01*
X112912756Y-68038792D01*
X112926426Y-67900000D01*
X112923000Y-66241000D01*
X112746000Y-66064000D01*
X110554000Y-66064000D01*
X110446000Y-66064000D01*
X107374000Y-66064000D01*
X107266000Y-66064000D01*
X105074000Y-66064000D01*
X104897000Y-66241000D01*
X104893574Y-67900000D01*
X101075000Y-67900000D01*
X101075000Y-64120000D01*
X104893574Y-64120000D01*
X104897000Y-65779000D01*
X105074000Y-65956000D01*
X107266000Y-65956000D01*
X107266000Y-63589000D01*
X107374000Y-63589000D01*
X107374000Y-65956000D01*
X110446000Y-65956000D01*
X110446000Y-63589000D01*
X110554000Y-63589000D01*
X110554000Y-65956000D01*
X112746000Y-65956000D01*
X112923000Y-65779000D01*
X112926426Y-64120000D01*
X112912756Y-63981208D01*
X112872272Y-63847749D01*
X112806529Y-63724753D01*
X112718054Y-63616946D01*
X112610247Y-63528471D01*
X112487251Y-63462728D01*
X112353792Y-63422244D01*
X112215000Y-63408574D01*
X110731000Y-63412000D01*
X110554000Y-63589000D01*
X110446000Y-63589000D01*
X110269000Y-63412000D01*
X109041001Y-63409165D01*
X109035000Y-63408574D01*
X108910000Y-63408863D01*
X108785000Y-63408574D01*
X108778999Y-63409165D01*
X107551000Y-63412000D01*
X107374000Y-63589000D01*
X107266000Y-63589000D01*
X107089000Y-63412000D01*
X105605000Y-63408574D01*
X105466208Y-63422244D01*
X105332749Y-63462728D01*
X105209753Y-63528471D01*
X105101946Y-63616946D01*
X105013471Y-63724753D01*
X104947728Y-63847749D01*
X104907244Y-63981208D01*
X104893574Y-64120000D01*
X101075000Y-64120000D01*
X101075000Y-61862112D01*
X118100000Y-61862112D01*
X118100000Y-62137888D01*
X118153801Y-62408365D01*
X118259336Y-62663149D01*
X118412549Y-62892448D01*
X118607552Y-63087451D01*
X118836851Y-63240664D01*
X119091635Y-63346199D01*
X119362112Y-63400000D01*
X119637888Y-63400000D01*
X119908365Y-63346199D01*
X120163149Y-63240664D01*
X120392448Y-63087451D01*
X120587451Y-62892448D01*
X120740664Y-62663149D01*
X120846199Y-62408365D01*
X120869257Y-62292443D01*
X122290039Y-60871662D01*
X122334870Y-60834870D01*
X122380343Y-60779462D01*
X122481703Y-60655954D01*
X122511612Y-60600000D01*
X122590811Y-60451829D01*
X122653981Y-60243583D01*
X122657998Y-60230341D01*
X122660922Y-60200656D01*
X122675000Y-60057720D01*
X122675000Y-60057713D01*
X122680684Y-60000001D01*
X122675000Y-59942289D01*
X122675000Y-54261422D01*
X122740664Y-54163149D01*
X122846199Y-53908365D01*
X122900000Y-53637888D01*
X122900000Y-53362112D01*
X122846199Y-53091635D01*
X122740664Y-52836851D01*
X122587451Y-52607552D01*
X122392448Y-52412549D01*
X122163149Y-52259336D01*
X121908365Y-52153801D01*
X121637888Y-52100000D01*
X121362112Y-52100000D01*
X121091635Y-52153801D01*
X120836851Y-52259336D01*
X120607552Y-52412549D01*
X120412549Y-52607552D01*
X120259336Y-52836851D01*
X120153801Y-53091635D01*
X120100000Y-53362112D01*
X120100000Y-53637888D01*
X120153801Y-53908365D01*
X120259336Y-54163149D01*
X120325000Y-54261422D01*
X120325001Y-59513298D01*
X119207557Y-60630743D01*
X119091635Y-60653801D01*
X118836851Y-60759336D01*
X118607552Y-60912549D01*
X118412549Y-61107552D01*
X118259336Y-61336851D01*
X118153801Y-61591635D01*
X118100000Y-61862112D01*
X101075000Y-61862112D01*
X101075000Y-54052581D01*
X101135764Y-53432861D01*
X101300468Y-52887336D01*
X101568000Y-52384182D01*
X101928163Y-51942578D01*
X102367245Y-51579338D01*
X102868515Y-51308302D01*
X103412881Y-51139793D01*
X104029337Y-51075000D01*
X183947419Y-51075000D01*
X184567139Y-51135764D01*
M02*
