G04 #@! TF.GenerationSoftware,KiCad,Pcbnew,(5.1.0-0)*
G04 #@! TF.CreationDate,2019-04-04T11:20:21+10:30*
G04 #@! TF.ProjectId,wide-input-reg,77696465-2d69-46e7-9075-742d7265672e,rev?*
G04 #@! TF.SameCoordinates,Original*
G04 #@! TF.FileFunction,Drawing*
%FSLAX46Y46*%
G04 Gerber Fmt 4.6, Leading zero omitted, Abs format (unit mm)*
G04 Created by KiCad (PCBNEW (5.1.0-0)) date 2019-04-04 11:20:21*
%MOMM*%
%LPD*%
G04 APERTURE LIST*
%ADD10C,0.150000*%
G04 APERTURE END LIST*
D10*
X140047619Y-40580952D02*
X139952380Y-40533333D01*
X139904761Y-40485714D01*
X139857142Y-40390476D01*
X139857142Y-40342857D01*
X139904761Y-40247619D01*
X139952380Y-40200000D01*
X140047619Y-40152380D01*
X140238095Y-40152380D01*
X140333333Y-40200000D01*
X140380952Y-40247619D01*
X140428571Y-40342857D01*
X140428571Y-40390476D01*
X140380952Y-40485714D01*
X140333333Y-40533333D01*
X140238095Y-40580952D01*
X140047619Y-40580952D01*
X139952380Y-40628571D01*
X139904761Y-40676190D01*
X139857142Y-40771428D01*
X139857142Y-40961904D01*
X139904761Y-41057142D01*
X139952380Y-41104761D01*
X140047619Y-41152380D01*
X140238095Y-41152380D01*
X140333333Y-41104761D01*
X140380952Y-41057142D01*
X140428571Y-40961904D01*
X140428571Y-40771428D01*
X140380952Y-40676190D01*
X140333333Y-40628571D01*
X140238095Y-40580952D01*
X141047619Y-40152380D02*
X141142857Y-40152380D01*
X141238095Y-40200000D01*
X141285714Y-40247619D01*
X141333333Y-40342857D01*
X141380952Y-40533333D01*
X141380952Y-40771428D01*
X141333333Y-40961904D01*
X141285714Y-41057142D01*
X141238095Y-41104761D01*
X141142857Y-41152380D01*
X141047619Y-41152380D01*
X140952380Y-41104761D01*
X140904761Y-41057142D01*
X140857142Y-40961904D01*
X140809523Y-40771428D01*
X140809523Y-40533333D01*
X140857142Y-40342857D01*
X140904761Y-40247619D01*
X140952380Y-40200000D01*
X141047619Y-40152380D01*
X141809523Y-41057142D02*
X141857142Y-41104761D01*
X141809523Y-41152380D01*
X141761904Y-41104761D01*
X141809523Y-41057142D01*
X141809523Y-41152380D01*
X142476190Y-40152380D02*
X142571428Y-40152380D01*
X142666666Y-40200000D01*
X142714285Y-40247619D01*
X142761904Y-40342857D01*
X142809523Y-40533333D01*
X142809523Y-40771428D01*
X142761904Y-40961904D01*
X142714285Y-41057142D01*
X142666666Y-41104761D01*
X142571428Y-41152380D01*
X142476190Y-41152380D01*
X142380952Y-41104761D01*
X142333333Y-41057142D01*
X142285714Y-40961904D01*
X142238095Y-40771428D01*
X142238095Y-40533333D01*
X142285714Y-40342857D01*
X142333333Y-40247619D01*
X142380952Y-40200000D01*
X142476190Y-40152380D01*
X143428571Y-40152380D02*
X143523809Y-40152380D01*
X143619047Y-40200000D01*
X143666666Y-40247619D01*
X143714285Y-40342857D01*
X143761904Y-40533333D01*
X143761904Y-40771428D01*
X143714285Y-40961904D01*
X143666666Y-41057142D01*
X143619047Y-41104761D01*
X143523809Y-41152380D01*
X143428571Y-41152380D01*
X143333333Y-41104761D01*
X143285714Y-41057142D01*
X143238095Y-40961904D01*
X143190476Y-40771428D01*
X143190476Y-40533333D01*
X143238095Y-40342857D01*
X143285714Y-40247619D01*
X143333333Y-40200000D01*
X143428571Y-40152380D01*
X144380952Y-40152380D02*
X144476190Y-40152380D01*
X144571428Y-40200000D01*
X144619047Y-40247619D01*
X144666666Y-40342857D01*
X144714285Y-40533333D01*
X144714285Y-40771428D01*
X144666666Y-40961904D01*
X144619047Y-41057142D01*
X144571428Y-41104761D01*
X144476190Y-41152380D01*
X144380952Y-41152380D01*
X144285714Y-41104761D01*
X144238095Y-41057142D01*
X144190476Y-40961904D01*
X144142857Y-40771428D01*
X144142857Y-40533333D01*
X144190476Y-40342857D01*
X144238095Y-40247619D01*
X144285714Y-40200000D01*
X144380952Y-40152380D01*
X145904761Y-41152380D02*
X145904761Y-40485714D01*
X145904761Y-40580952D02*
X145952380Y-40533333D01*
X146047619Y-40485714D01*
X146190476Y-40485714D01*
X146285714Y-40533333D01*
X146333333Y-40628571D01*
X146333333Y-41152380D01*
X146333333Y-40628571D02*
X146380952Y-40533333D01*
X146476190Y-40485714D01*
X146619047Y-40485714D01*
X146714285Y-40533333D01*
X146761904Y-40628571D01*
X146761904Y-41152380D01*
X147238095Y-41152380D02*
X147238095Y-40485714D01*
X147238095Y-40580952D02*
X147285714Y-40533333D01*
X147380952Y-40485714D01*
X147523809Y-40485714D01*
X147619047Y-40533333D01*
X147666666Y-40628571D01*
X147666666Y-41152380D01*
X147666666Y-40628571D02*
X147714285Y-40533333D01*
X147809523Y-40485714D01*
X147952380Y-40485714D01*
X148047619Y-40533333D01*
X148095238Y-40628571D01*
X148095238Y-41152380D01*
X104000000Y-42000000D02*
X184000000Y-42000000D01*
X104000000Y-54000000D02*
X104000000Y-41413579D01*
X184000000Y-54000000D02*
X184000000Y-41413579D01*
X184000000Y-42000000D02*
X182873496Y-42586421D01*
X184000000Y-42000000D02*
X182873496Y-41413579D01*
X104000000Y-42000000D02*
X105126504Y-42586421D01*
X104000000Y-42000000D02*
X105126504Y-41413579D01*
X140047619Y-34580952D02*
X139952380Y-34533333D01*
X139904761Y-34485714D01*
X139857142Y-34390476D01*
X139857142Y-34342857D01*
X139904761Y-34247619D01*
X139952380Y-34200000D01*
X140047619Y-34152380D01*
X140238095Y-34152380D01*
X140333333Y-34200000D01*
X140380952Y-34247619D01*
X140428571Y-34342857D01*
X140428571Y-34390476D01*
X140380952Y-34485714D01*
X140333333Y-34533333D01*
X140238095Y-34580952D01*
X140047619Y-34580952D01*
X139952380Y-34628571D01*
X139904761Y-34676190D01*
X139857142Y-34771428D01*
X139857142Y-34961904D01*
X139904761Y-35057142D01*
X139952380Y-35104761D01*
X140047619Y-35152380D01*
X140238095Y-35152380D01*
X140333333Y-35104761D01*
X140380952Y-35057142D01*
X140428571Y-34961904D01*
X140428571Y-34771428D01*
X140380952Y-34676190D01*
X140333333Y-34628571D01*
X140238095Y-34580952D01*
X141000000Y-34580952D02*
X140904761Y-34533333D01*
X140857142Y-34485714D01*
X140809523Y-34390476D01*
X140809523Y-34342857D01*
X140857142Y-34247619D01*
X140904761Y-34200000D01*
X141000000Y-34152380D01*
X141190476Y-34152380D01*
X141285714Y-34200000D01*
X141333333Y-34247619D01*
X141380952Y-34342857D01*
X141380952Y-34390476D01*
X141333333Y-34485714D01*
X141285714Y-34533333D01*
X141190476Y-34580952D01*
X141000000Y-34580952D01*
X140904761Y-34628571D01*
X140857142Y-34676190D01*
X140809523Y-34771428D01*
X140809523Y-34961904D01*
X140857142Y-35057142D01*
X140904761Y-35104761D01*
X141000000Y-35152380D01*
X141190476Y-35152380D01*
X141285714Y-35104761D01*
X141333333Y-35057142D01*
X141380952Y-34961904D01*
X141380952Y-34771428D01*
X141333333Y-34676190D01*
X141285714Y-34628571D01*
X141190476Y-34580952D01*
X141809523Y-35057142D02*
X141857142Y-35104761D01*
X141809523Y-35152380D01*
X141761904Y-35104761D01*
X141809523Y-35057142D01*
X141809523Y-35152380D01*
X142476190Y-34152380D02*
X142571428Y-34152380D01*
X142666666Y-34200000D01*
X142714285Y-34247619D01*
X142761904Y-34342857D01*
X142809523Y-34533333D01*
X142809523Y-34771428D01*
X142761904Y-34961904D01*
X142714285Y-35057142D01*
X142666666Y-35104761D01*
X142571428Y-35152380D01*
X142476190Y-35152380D01*
X142380952Y-35104761D01*
X142333333Y-35057142D01*
X142285714Y-34961904D01*
X142238095Y-34771428D01*
X142238095Y-34533333D01*
X142285714Y-34342857D01*
X142333333Y-34247619D01*
X142380952Y-34200000D01*
X142476190Y-34152380D01*
X143428571Y-34152380D02*
X143523809Y-34152380D01*
X143619047Y-34200000D01*
X143666666Y-34247619D01*
X143714285Y-34342857D01*
X143761904Y-34533333D01*
X143761904Y-34771428D01*
X143714285Y-34961904D01*
X143666666Y-35057142D01*
X143619047Y-35104761D01*
X143523809Y-35152380D01*
X143428571Y-35152380D01*
X143333333Y-35104761D01*
X143285714Y-35057142D01*
X143238095Y-34961904D01*
X143190476Y-34771428D01*
X143190476Y-34533333D01*
X143238095Y-34342857D01*
X143285714Y-34247619D01*
X143333333Y-34200000D01*
X143428571Y-34152380D01*
X144380952Y-34152380D02*
X144476190Y-34152380D01*
X144571428Y-34200000D01*
X144619047Y-34247619D01*
X144666666Y-34342857D01*
X144714285Y-34533333D01*
X144714285Y-34771428D01*
X144666666Y-34961904D01*
X144619047Y-35057142D01*
X144571428Y-35104761D01*
X144476190Y-35152380D01*
X144380952Y-35152380D01*
X144285714Y-35104761D01*
X144238095Y-35057142D01*
X144190476Y-34961904D01*
X144142857Y-34771428D01*
X144142857Y-34533333D01*
X144190476Y-34342857D01*
X144238095Y-34247619D01*
X144285714Y-34200000D01*
X144380952Y-34152380D01*
X145904761Y-35152380D02*
X145904761Y-34485714D01*
X145904761Y-34580952D02*
X145952380Y-34533333D01*
X146047619Y-34485714D01*
X146190476Y-34485714D01*
X146285714Y-34533333D01*
X146333333Y-34628571D01*
X146333333Y-35152380D01*
X146333333Y-34628571D02*
X146380952Y-34533333D01*
X146476190Y-34485714D01*
X146619047Y-34485714D01*
X146714285Y-34533333D01*
X146761904Y-34628571D01*
X146761904Y-35152380D01*
X147238095Y-35152380D02*
X147238095Y-34485714D01*
X147238095Y-34580952D02*
X147285714Y-34533333D01*
X147380952Y-34485714D01*
X147523809Y-34485714D01*
X147619047Y-34533333D01*
X147666666Y-34628571D01*
X147666666Y-35152380D01*
X147666666Y-34628571D02*
X147714285Y-34533333D01*
X147809523Y-34485714D01*
X147952380Y-34485714D01*
X148047619Y-34533333D01*
X148095238Y-34628571D01*
X148095238Y-35152380D01*
X100000000Y-36000000D02*
X188000000Y-36000000D01*
X100000000Y-50000000D02*
X100000000Y-35413579D01*
X188000000Y-50000000D02*
X188000000Y-35413579D01*
X188000000Y-36000000D02*
X186873496Y-36586421D01*
X188000000Y-36000000D02*
X186873496Y-35413579D01*
X100000000Y-36000000D02*
X101126504Y-36586421D01*
X100000000Y-36000000D02*
X101126504Y-35413579D01*
X84152380Y-82619047D02*
X84152380Y-83095238D01*
X84628571Y-83142857D01*
X84580952Y-83095238D01*
X84533333Y-83000000D01*
X84533333Y-82761904D01*
X84580952Y-82666666D01*
X84628571Y-82619047D01*
X84723809Y-82571428D01*
X84961904Y-82571428D01*
X85057142Y-82619047D01*
X85104761Y-82666666D01*
X85152380Y-82761904D01*
X85152380Y-83000000D01*
X85104761Y-83095238D01*
X85057142Y-83142857D01*
X84152380Y-81952380D02*
X84152380Y-81857142D01*
X84200000Y-81761904D01*
X84247619Y-81714285D01*
X84342857Y-81666666D01*
X84533333Y-81619047D01*
X84771428Y-81619047D01*
X84961904Y-81666666D01*
X85057142Y-81714285D01*
X85104761Y-81761904D01*
X85152380Y-81857142D01*
X85152380Y-81952380D01*
X85104761Y-82047619D01*
X85057142Y-82095238D01*
X84961904Y-82142857D01*
X84771428Y-82190476D01*
X84533333Y-82190476D01*
X84342857Y-82142857D01*
X84247619Y-82095238D01*
X84200000Y-82047619D01*
X84152380Y-81952380D01*
X85057142Y-81190476D02*
X85104761Y-81142857D01*
X85152380Y-81190476D01*
X85104761Y-81238095D01*
X85057142Y-81190476D01*
X85152380Y-81190476D01*
X84152380Y-80523809D02*
X84152380Y-80428571D01*
X84200000Y-80333333D01*
X84247619Y-80285714D01*
X84342857Y-80238095D01*
X84533333Y-80190476D01*
X84771428Y-80190476D01*
X84961904Y-80238095D01*
X85057142Y-80285714D01*
X85104761Y-80333333D01*
X85152380Y-80428571D01*
X85152380Y-80523809D01*
X85104761Y-80619047D01*
X85057142Y-80666666D01*
X84961904Y-80714285D01*
X84771428Y-80761904D01*
X84533333Y-80761904D01*
X84342857Y-80714285D01*
X84247619Y-80666666D01*
X84200000Y-80619047D01*
X84152380Y-80523809D01*
X84152380Y-79571428D02*
X84152380Y-79476190D01*
X84200000Y-79380952D01*
X84247619Y-79333333D01*
X84342857Y-79285714D01*
X84533333Y-79238095D01*
X84771428Y-79238095D01*
X84961904Y-79285714D01*
X85057142Y-79333333D01*
X85104761Y-79380952D01*
X85152380Y-79476190D01*
X85152380Y-79571428D01*
X85104761Y-79666666D01*
X85057142Y-79714285D01*
X84961904Y-79761904D01*
X84771428Y-79809523D01*
X84533333Y-79809523D01*
X84342857Y-79761904D01*
X84247619Y-79714285D01*
X84200000Y-79666666D01*
X84152380Y-79571428D01*
X84152380Y-78619047D02*
X84152380Y-78523809D01*
X84200000Y-78428571D01*
X84247619Y-78380952D01*
X84342857Y-78333333D01*
X84533333Y-78285714D01*
X84771428Y-78285714D01*
X84961904Y-78333333D01*
X85057142Y-78380952D01*
X85104761Y-78428571D01*
X85152380Y-78523809D01*
X85152380Y-78619047D01*
X85104761Y-78714285D01*
X85057142Y-78761904D01*
X84961904Y-78809523D01*
X84771428Y-78857142D01*
X84533333Y-78857142D01*
X84342857Y-78809523D01*
X84247619Y-78761904D01*
X84200000Y-78714285D01*
X84152380Y-78619047D01*
X85152380Y-77095238D02*
X84485714Y-77095238D01*
X84580952Y-77095238D02*
X84533333Y-77047619D01*
X84485714Y-76952380D01*
X84485714Y-76809523D01*
X84533333Y-76714285D01*
X84628571Y-76666666D01*
X85152380Y-76666666D01*
X84628571Y-76666666D02*
X84533333Y-76619047D01*
X84485714Y-76523809D01*
X84485714Y-76380952D01*
X84533333Y-76285714D01*
X84628571Y-76238095D01*
X85152380Y-76238095D01*
X85152380Y-75761904D02*
X84485714Y-75761904D01*
X84580952Y-75761904D02*
X84533333Y-75714285D01*
X84485714Y-75619047D01*
X84485714Y-75476190D01*
X84533333Y-75380952D01*
X84628571Y-75333333D01*
X85152380Y-75333333D01*
X84628571Y-75333333D02*
X84533333Y-75285714D01*
X84485714Y-75190476D01*
X84485714Y-75047619D01*
X84533333Y-74952380D01*
X84628571Y-74904761D01*
X85152380Y-74904761D01*
X86000000Y-104000000D02*
X86000000Y-54000000D01*
X104000000Y-104000000D02*
X85413579Y-104000000D01*
X104000000Y-54000000D02*
X85413579Y-54000000D01*
X86000000Y-54000000D02*
X86586421Y-55126504D01*
X86000000Y-54000000D02*
X85413579Y-55126504D01*
X86000000Y-104000000D02*
X86586421Y-102873496D01*
X86000000Y-104000000D02*
X85413579Y-102873496D01*
X78189114Y-82544203D02*
X78187472Y-83020391D01*
X78663496Y-83069652D01*
X78616041Y-83021869D01*
X78568751Y-82926467D01*
X78569572Y-82688373D01*
X78617519Y-82593300D01*
X78665302Y-82545845D01*
X78760704Y-82498555D01*
X78998798Y-82499376D01*
X79093871Y-82547323D01*
X79141325Y-82595106D01*
X79188616Y-82690508D01*
X79187795Y-82928602D01*
X79139848Y-83023675D01*
X79092065Y-83071130D01*
X78619818Y-81926637D02*
X78571871Y-82021710D01*
X78524088Y-82069165D01*
X78428686Y-82116455D01*
X78381067Y-82116291D01*
X78285994Y-82068344D01*
X78238539Y-82020561D01*
X78191249Y-81925159D01*
X78191906Y-81734684D01*
X78239853Y-81639611D01*
X78287636Y-81592156D01*
X78383038Y-81544866D01*
X78430656Y-81545030D01*
X78525730Y-81592977D01*
X78573184Y-81640760D01*
X78620475Y-81736162D01*
X78619818Y-81926637D01*
X78667108Y-82022039D01*
X78714563Y-82069822D01*
X78809636Y-82117769D01*
X79000111Y-82118426D01*
X79095513Y-82071135D01*
X79143296Y-82023681D01*
X79191243Y-81928608D01*
X79191900Y-81738133D01*
X79144609Y-81642731D01*
X79097155Y-81594948D01*
X79002082Y-81547001D01*
X78811607Y-81546344D01*
X78716205Y-81593634D01*
X78668422Y-81641089D01*
X78620475Y-81736162D01*
X79098797Y-81118760D02*
X79146580Y-81071306D01*
X79194034Y-81119089D01*
X79146251Y-81166543D01*
X79098797Y-81118760D01*
X79194034Y-81119089D01*
X78196339Y-80448978D02*
X78196668Y-80353740D01*
X78244615Y-80258667D01*
X78292398Y-80211212D01*
X78387799Y-80163922D01*
X78578439Y-80116960D01*
X78816533Y-80117781D01*
X79006843Y-80166056D01*
X79101917Y-80214004D01*
X79149371Y-80261787D01*
X79196662Y-80357188D01*
X79196333Y-80452426D01*
X79148386Y-80547499D01*
X79100603Y-80594954D01*
X79005201Y-80642244D01*
X78814562Y-80689206D01*
X78576468Y-80688385D01*
X78386157Y-80640110D01*
X78291084Y-80592162D01*
X78243630Y-80544379D01*
X78196339Y-80448978D01*
X78199623Y-79496602D02*
X78199952Y-79401365D01*
X78247899Y-79306291D01*
X78295682Y-79258837D01*
X78391084Y-79211547D01*
X78581723Y-79164585D01*
X78819817Y-79165406D01*
X79010127Y-79213681D01*
X79105201Y-79261628D01*
X79152655Y-79309411D01*
X79199946Y-79404813D01*
X79199617Y-79500051D01*
X79151670Y-79595124D01*
X79103887Y-79642578D01*
X79008485Y-79689869D01*
X78817846Y-79736831D01*
X78579752Y-79736010D01*
X78389442Y-79687734D01*
X78294368Y-79639787D01*
X78246914Y-79592004D01*
X78199623Y-79496602D01*
X78202907Y-78544227D02*
X78203236Y-78448990D01*
X78251183Y-78353916D01*
X78298966Y-78306462D01*
X78394368Y-78259171D01*
X78585007Y-78212209D01*
X78823101Y-78213030D01*
X79013412Y-78261306D01*
X79108485Y-78309253D01*
X79155939Y-78357036D01*
X79203230Y-78452438D01*
X79202901Y-78547675D01*
X79154954Y-78642749D01*
X79107171Y-78690203D01*
X79011770Y-78737494D01*
X78821130Y-78784456D01*
X78583036Y-78783634D01*
X78392726Y-78735359D01*
X78297652Y-78687412D01*
X78250198Y-78639629D01*
X78202907Y-78544227D01*
X79208156Y-77023875D02*
X78541493Y-77021576D01*
X78636731Y-77021904D02*
X78589276Y-76974121D01*
X78541986Y-76878720D01*
X78542478Y-76735863D01*
X78590426Y-76640790D01*
X78685827Y-76593500D01*
X79209634Y-76595306D01*
X78685827Y-76593500D02*
X78590754Y-76545553D01*
X78543464Y-76450151D01*
X78543956Y-76307295D01*
X78591903Y-76212221D01*
X78687305Y-76164931D01*
X79211112Y-76166737D01*
X79212754Y-75690549D02*
X78546091Y-75688251D01*
X78641328Y-75688579D02*
X78593874Y-75640796D01*
X78546583Y-75545394D01*
X78547076Y-75402538D01*
X78595023Y-75307465D01*
X78690425Y-75260174D01*
X79214231Y-75261981D01*
X78690425Y-75260174D02*
X78595352Y-75212227D01*
X78548061Y-75116825D01*
X78548554Y-74973969D01*
X78596501Y-74878896D01*
X78691903Y-74831605D01*
X79215709Y-74833412D01*
X80149202Y-49931549D02*
X79949202Y-107931549D01*
X100000000Y-50000000D02*
X79562785Y-49929527D01*
X99800000Y-108000000D02*
X79362785Y-107929527D01*
X79949202Y-107931549D02*
X79366669Y-106803030D01*
X79949202Y-107931549D02*
X80539504Y-106807074D01*
X80149202Y-49931549D02*
X79558900Y-51056024D01*
X80149202Y-49931549D02*
X80731735Y-51060068D01*
M02*
