G04 #@! TF.GenerationSoftware,KiCad,Pcbnew,(5.1.0-0)*
G04 #@! TF.CreationDate,2019-04-04T11:20:21+10:30*
G04 #@! TF.ProjectId,wide-input-reg,77696465-2d69-46e7-9075-742d7265672e,rev?*
G04 #@! TF.SameCoordinates,Original*
G04 #@! TF.FileFunction,Legend,Bot*
G04 #@! TF.FilePolarity,Positive*
%FSLAX46Y46*%
G04 Gerber Fmt 4.6, Leading zero omitted, Abs format (unit mm)*
G04 Created by KiCad (PCBNEW (5.1.0-0)) date 2019-04-04 11:20:21*
%MOMM*%
%LPD*%
G04 APERTURE LIST*
%ADD10C,0.200000*%
%ADD11C,0.300000*%
%ADD12C,0.500000*%
%ADD13C,0.120000*%
G04 APERTURE END LIST*
D10*
X129196666Y-52383333D02*
X128863333Y-53783333D01*
X128596666Y-52783333D01*
X128330000Y-53783333D01*
X127996666Y-52383333D01*
X127463333Y-53783333D02*
X127463333Y-52383333D01*
X126796666Y-53783333D02*
X126796666Y-52383333D01*
X126463333Y-52383333D01*
X126263333Y-52450000D01*
X126130000Y-52583333D01*
X126063333Y-52716666D01*
X125996666Y-52983333D01*
X125996666Y-53183333D01*
X126063333Y-53450000D01*
X126130000Y-53583333D01*
X126263333Y-53716666D01*
X126463333Y-53783333D01*
X126796666Y-53783333D01*
X125396666Y-53050000D02*
X124930000Y-53050000D01*
X124730000Y-53783333D02*
X125396666Y-53783333D01*
X125396666Y-52383333D01*
X124730000Y-52383333D01*
X123063333Y-53783333D02*
X123063333Y-52383333D01*
X122396666Y-53783333D02*
X122396666Y-52383333D01*
X121596666Y-53783333D01*
X121596666Y-52383333D01*
X120930000Y-53783333D02*
X120930000Y-52383333D01*
X120396666Y-52383333D01*
X120263333Y-52450000D01*
X120196666Y-52516666D01*
X120130000Y-52650000D01*
X120130000Y-52850000D01*
X120196666Y-52983333D01*
X120263333Y-53050000D01*
X120396666Y-53116666D01*
X120930000Y-53116666D01*
X119530000Y-52383333D02*
X119530000Y-53516666D01*
X119463333Y-53650000D01*
X119396666Y-53716666D01*
X119263333Y-53783333D01*
X118996666Y-53783333D01*
X118863333Y-53716666D01*
X118796666Y-53650000D01*
X118730000Y-53516666D01*
X118730000Y-52383333D01*
X118263333Y-52383333D02*
X117463333Y-52383333D01*
X117863333Y-53783333D02*
X117863333Y-52383333D01*
X115930000Y-53783333D02*
X115930000Y-52383333D01*
X115596666Y-52383333D01*
X115396666Y-52450000D01*
X115263333Y-52583333D01*
X115196666Y-52716666D01*
X115130000Y-52983333D01*
X115130000Y-53183333D01*
X115196666Y-53450000D01*
X115263333Y-53583333D01*
X115396666Y-53716666D01*
X115596666Y-53783333D01*
X115930000Y-53783333D01*
X113730000Y-53650000D02*
X113796666Y-53716666D01*
X113996666Y-53783333D01*
X114130000Y-53783333D01*
X114330000Y-53716666D01*
X114463333Y-53583333D01*
X114530000Y-53450000D01*
X114596666Y-53183333D01*
X114596666Y-52983333D01*
X114530000Y-52716666D01*
X114463333Y-52583333D01*
X114330000Y-52450000D01*
X114130000Y-52383333D01*
X113996666Y-52383333D01*
X113796666Y-52450000D01*
X113730000Y-52516666D01*
X113130000Y-53250000D02*
X112063333Y-53250000D01*
X111396666Y-53783333D02*
X111396666Y-52383333D01*
X111063333Y-52383333D01*
X110863333Y-52450000D01*
X110730000Y-52583333D01*
X110663333Y-52716666D01*
X110596666Y-52983333D01*
X110596666Y-53183333D01*
X110663333Y-53450000D01*
X110730000Y-53583333D01*
X110863333Y-53716666D01*
X111063333Y-53783333D01*
X111396666Y-53783333D01*
X109196666Y-53650000D02*
X109263333Y-53716666D01*
X109463333Y-53783333D01*
X109596666Y-53783333D01*
X109796666Y-53716666D01*
X109930000Y-53583333D01*
X109996666Y-53450000D01*
X110063333Y-53183333D01*
X110063333Y-52983333D01*
X109996666Y-52716666D01*
X109930000Y-52583333D01*
X109796666Y-52450000D01*
X109596666Y-52383333D01*
X109463333Y-52383333D01*
X109263333Y-52450000D01*
X109196666Y-52516666D01*
X132530000Y-56016666D02*
X132330000Y-56083333D01*
X131996666Y-56083333D01*
X131863333Y-56016666D01*
X131796666Y-55950000D01*
X131730000Y-55816666D01*
X131730000Y-55683333D01*
X131796666Y-55550000D01*
X131863333Y-55483333D01*
X131996666Y-55416666D01*
X132263333Y-55350000D01*
X132396666Y-55283333D01*
X132463333Y-55216666D01*
X132530000Y-55083333D01*
X132530000Y-54950000D01*
X132463333Y-54816666D01*
X132396666Y-54750000D01*
X132263333Y-54683333D01*
X131930000Y-54683333D01*
X131730000Y-54750000D01*
X131330000Y-54683333D02*
X130530000Y-54683333D01*
X130930000Y-56083333D02*
X130930000Y-54683333D01*
X130063333Y-55350000D02*
X129596666Y-55350000D01*
X129396666Y-56083333D02*
X130063333Y-56083333D01*
X130063333Y-54683333D01*
X129396666Y-54683333D01*
X128796666Y-56083333D02*
X128796666Y-54683333D01*
X128263333Y-54683333D01*
X128130000Y-54750000D01*
X128063333Y-54816666D01*
X127996666Y-54950000D01*
X127996666Y-55150000D01*
X128063333Y-55283333D01*
X128130000Y-55350000D01*
X128263333Y-55416666D01*
X128796666Y-55416666D01*
X127396666Y-56083333D02*
X127396666Y-54683333D01*
X127063333Y-54683333D01*
X126863333Y-54750000D01*
X126730000Y-54883333D01*
X126663333Y-55016666D01*
X126596666Y-55283333D01*
X126596666Y-55483333D01*
X126663333Y-55750000D01*
X126730000Y-55883333D01*
X126863333Y-56016666D01*
X127063333Y-56083333D01*
X127396666Y-56083333D01*
X125730000Y-54683333D02*
X125463333Y-54683333D01*
X125330000Y-54750000D01*
X125196666Y-54883333D01*
X125130000Y-55150000D01*
X125130000Y-55616666D01*
X125196666Y-55883333D01*
X125330000Y-56016666D01*
X125463333Y-56083333D01*
X125730000Y-56083333D01*
X125863333Y-56016666D01*
X125996666Y-55883333D01*
X126063333Y-55616666D01*
X126063333Y-55150000D01*
X125996666Y-54883333D01*
X125863333Y-54750000D01*
X125730000Y-54683333D01*
X124663333Y-54683333D02*
X124330000Y-56083333D01*
X124063333Y-55083333D01*
X123796666Y-56083333D01*
X123463333Y-54683333D01*
X122930000Y-56083333D02*
X122930000Y-54683333D01*
X122130000Y-56083333D01*
X122130000Y-54683333D01*
X119596666Y-56083333D02*
X120063333Y-55416666D01*
X120396666Y-56083333D02*
X120396666Y-54683333D01*
X119863333Y-54683333D01*
X119730000Y-54750000D01*
X119663333Y-54816666D01*
X119596666Y-54950000D01*
X119596666Y-55150000D01*
X119663333Y-55283333D01*
X119730000Y-55350000D01*
X119863333Y-55416666D01*
X120396666Y-55416666D01*
X118996666Y-55350000D02*
X118530000Y-55350000D01*
X118330000Y-56083333D02*
X118996666Y-56083333D01*
X118996666Y-54683333D01*
X118330000Y-54683333D01*
X116996666Y-54750000D02*
X117130000Y-54683333D01*
X117330000Y-54683333D01*
X117530000Y-54750000D01*
X117663333Y-54883333D01*
X117730000Y-55016666D01*
X117796666Y-55283333D01*
X117796666Y-55483333D01*
X117730000Y-55750000D01*
X117663333Y-55883333D01*
X117530000Y-56016666D01*
X117330000Y-56083333D01*
X117196666Y-56083333D01*
X116996666Y-56016666D01*
X116930000Y-55950000D01*
X116930000Y-55483333D01*
X117196666Y-55483333D01*
X116330000Y-54683333D02*
X116330000Y-55816666D01*
X116263333Y-55950000D01*
X116196666Y-56016666D01*
X116063333Y-56083333D01*
X115796666Y-56083333D01*
X115663333Y-56016666D01*
X115596666Y-55950000D01*
X115530000Y-55816666D01*
X115530000Y-54683333D01*
X114196666Y-56083333D02*
X114863333Y-56083333D01*
X114863333Y-54683333D01*
X113796666Y-55683333D02*
X113130000Y-55683333D01*
X113930000Y-56083333D02*
X113463333Y-54683333D01*
X112996666Y-56083333D01*
X112730000Y-54683333D02*
X111930000Y-54683333D01*
X112330000Y-56083333D02*
X112330000Y-54683333D01*
X111196666Y-54683333D02*
X110930000Y-54683333D01*
X110796666Y-54750000D01*
X110663333Y-54883333D01*
X110596666Y-55150000D01*
X110596666Y-55616666D01*
X110663333Y-55883333D01*
X110796666Y-56016666D01*
X110930000Y-56083333D01*
X111196666Y-56083333D01*
X111330000Y-56016666D01*
X111463333Y-55883333D01*
X111530000Y-55616666D01*
X111530000Y-55150000D01*
X111463333Y-54883333D01*
X111330000Y-54750000D01*
X111196666Y-54683333D01*
X109196666Y-56083333D02*
X109663333Y-55416666D01*
X109996666Y-56083333D02*
X109996666Y-54683333D01*
X109463333Y-54683333D01*
X109330000Y-54750000D01*
X109263333Y-54816666D01*
X109196666Y-54950000D01*
X109196666Y-55150000D01*
X109263333Y-55283333D01*
X109330000Y-55350000D01*
X109463333Y-55416666D01*
X109996666Y-55416666D01*
X178703333Y-53716666D02*
X178503333Y-53783333D01*
X178170000Y-53783333D01*
X178036666Y-53716666D01*
X177970000Y-53650000D01*
X177903333Y-53516666D01*
X177903333Y-53383333D01*
X177970000Y-53250000D01*
X178036666Y-53183333D01*
X178170000Y-53116666D01*
X178436666Y-53050000D01*
X178570000Y-52983333D01*
X178636666Y-52916666D01*
X178703333Y-52783333D01*
X178703333Y-52650000D01*
X178636666Y-52516666D01*
X178570000Y-52450000D01*
X178436666Y-52383333D01*
X178103333Y-52383333D01*
X177903333Y-52450000D01*
X177303333Y-53650000D02*
X177236666Y-53716666D01*
X177303333Y-53783333D01*
X177370000Y-53716666D01*
X177303333Y-53650000D01*
X177303333Y-53783333D01*
X175836666Y-53783333D02*
X176303333Y-53116666D01*
X176636666Y-53783333D02*
X176636666Y-52383333D01*
X176103333Y-52383333D01*
X175970000Y-52450000D01*
X175903333Y-52516666D01*
X175836666Y-52650000D01*
X175836666Y-52850000D01*
X175903333Y-52983333D01*
X175970000Y-53050000D01*
X176103333Y-53116666D01*
X176636666Y-53116666D01*
X175303333Y-53383333D02*
X174636666Y-53383333D01*
X175436666Y-53783333D02*
X174970000Y-52383333D01*
X174503333Y-53783333D01*
X174036666Y-53783333D02*
X174036666Y-52383333D01*
X173503333Y-52383333D01*
X173370000Y-52450000D01*
X173303333Y-52516666D01*
X173236666Y-52650000D01*
X173236666Y-52850000D01*
X173303333Y-52983333D01*
X173370000Y-53050000D01*
X173503333Y-53116666D01*
X174036666Y-53116666D01*
X172703333Y-53716666D02*
X172503333Y-53783333D01*
X172170000Y-53783333D01*
X172036666Y-53716666D01*
X171970000Y-53650000D01*
X171903333Y-53516666D01*
X171903333Y-53383333D01*
X171970000Y-53250000D01*
X172036666Y-53183333D01*
X172170000Y-53116666D01*
X172436666Y-53050000D01*
X172570000Y-52983333D01*
X172636666Y-52916666D01*
X172703333Y-52783333D01*
X172703333Y-52650000D01*
X172636666Y-52516666D01*
X172570000Y-52450000D01*
X172436666Y-52383333D01*
X172103333Y-52383333D01*
X171903333Y-52450000D01*
X171036666Y-52383333D02*
X170770000Y-52383333D01*
X170636666Y-52450000D01*
X170503333Y-52583333D01*
X170436666Y-52850000D01*
X170436666Y-53316666D01*
X170503333Y-53583333D01*
X170636666Y-53716666D01*
X170770000Y-53783333D01*
X171036666Y-53783333D01*
X171170000Y-53716666D01*
X171303333Y-53583333D01*
X171370000Y-53316666D01*
X171370000Y-52850000D01*
X171303333Y-52583333D01*
X171170000Y-52450000D01*
X171036666Y-52383333D01*
X169836666Y-53783333D02*
X169836666Y-52383333D01*
X169036666Y-53783333D01*
X169036666Y-52383333D01*
X167370000Y-52516666D02*
X167303333Y-52450000D01*
X167170000Y-52383333D01*
X166836666Y-52383333D01*
X166703333Y-52450000D01*
X166636666Y-52516666D01*
X166570000Y-52650000D01*
X166570000Y-52783333D01*
X166636666Y-52983333D01*
X167436666Y-53783333D01*
X166570000Y-53783333D01*
X165703333Y-52383333D02*
X165570000Y-52383333D01*
X165436666Y-52450000D01*
X165370000Y-52516666D01*
X165303333Y-52650000D01*
X165236666Y-52916666D01*
X165236666Y-53250000D01*
X165303333Y-53516666D01*
X165370000Y-53650000D01*
X165436666Y-53716666D01*
X165570000Y-53783333D01*
X165703333Y-53783333D01*
X165836666Y-53716666D01*
X165903333Y-53650000D01*
X165970000Y-53516666D01*
X166036666Y-53250000D01*
X166036666Y-52916666D01*
X165970000Y-52650000D01*
X165903333Y-52516666D01*
X165836666Y-52450000D01*
X165703333Y-52383333D01*
X163903333Y-53783333D02*
X164703333Y-53783333D01*
X164303333Y-53783333D02*
X164303333Y-52383333D01*
X164436666Y-52583333D01*
X164570000Y-52716666D01*
X164703333Y-52783333D01*
X163236666Y-53783333D02*
X162970000Y-53783333D01*
X162836666Y-53716666D01*
X162770000Y-53650000D01*
X162636666Y-53450000D01*
X162570000Y-53183333D01*
X162570000Y-52650000D01*
X162636666Y-52516666D01*
X162703333Y-52450000D01*
X162836666Y-52383333D01*
X163103333Y-52383333D01*
X163236666Y-52450000D01*
X163303333Y-52516666D01*
X163370000Y-52650000D01*
X163370000Y-52983333D01*
X163303333Y-53116666D01*
X163236666Y-53183333D01*
X163103333Y-53250000D01*
X162836666Y-53250000D01*
X162703333Y-53183333D01*
X162636666Y-53116666D01*
X162570000Y-52983333D01*
X178836666Y-54683333D02*
X178370000Y-56083333D01*
X177903333Y-54683333D01*
X176703333Y-56083333D02*
X177503333Y-56083333D01*
X177103333Y-56083333D02*
X177103333Y-54683333D01*
X177236666Y-54883333D01*
X177370000Y-55016666D01*
X177503333Y-55083333D01*
X176103333Y-55950000D02*
X176036666Y-56016666D01*
X176103333Y-56083333D01*
X176170000Y-56016666D01*
X176103333Y-55950000D01*
X176103333Y-56083333D01*
X175170000Y-54683333D02*
X175036666Y-54683333D01*
X174903333Y-54750000D01*
X174836666Y-54816666D01*
X174770000Y-54950000D01*
X174703333Y-55216666D01*
X174703333Y-55550000D01*
X174770000Y-55816666D01*
X174836666Y-55950000D01*
X174903333Y-56016666D01*
X175036666Y-56083333D01*
X175170000Y-56083333D01*
X175303333Y-56016666D01*
X175370000Y-55950000D01*
X175436666Y-55816666D01*
X175503333Y-55550000D01*
X175503333Y-55216666D01*
X175436666Y-54950000D01*
X175370000Y-54816666D01*
X175303333Y-54750000D01*
X175170000Y-54683333D01*
X174103333Y-55950000D02*
X174036666Y-56016666D01*
X174103333Y-56083333D01*
X174170000Y-56016666D01*
X174103333Y-55950000D01*
X174103333Y-56083333D01*
X173170000Y-54683333D02*
X173036666Y-54683333D01*
X172903333Y-54750000D01*
X172836666Y-54816666D01*
X172770000Y-54950000D01*
X172703333Y-55216666D01*
X172703333Y-55550000D01*
X172770000Y-55816666D01*
X172836666Y-55950000D01*
X172903333Y-56016666D01*
X173036666Y-56083333D01*
X173170000Y-56083333D01*
X173303333Y-56016666D01*
X173370000Y-55950000D01*
X173436666Y-55816666D01*
X173503333Y-55550000D01*
X173503333Y-55216666D01*
X173436666Y-54950000D01*
X173370000Y-54816666D01*
X173303333Y-54750000D01*
X173170000Y-54683333D01*
D11*
X102121428Y-74485714D02*
X102121428Y-75342857D01*
X102121428Y-74914285D02*
X103621428Y-74914285D01*
X103407142Y-75057142D01*
X103264285Y-75200000D01*
X103192857Y-75342857D01*
X103478571Y-73914285D02*
X103550000Y-73842857D01*
X103621428Y-73700000D01*
X103621428Y-73342857D01*
X103550000Y-73200000D01*
X103478571Y-73128571D01*
X103335714Y-73057142D01*
X103192857Y-73057142D01*
X102978571Y-73128571D01*
X102121428Y-73985714D01*
X102121428Y-73057142D01*
X102692857Y-72414285D02*
X102692857Y-71271428D01*
X102121428Y-70485714D02*
X102121428Y-70200000D01*
X102192857Y-70057142D01*
X102264285Y-69985714D01*
X102478571Y-69842857D01*
X102764285Y-69771428D01*
X103335714Y-69771428D01*
X103478571Y-69842857D01*
X103550000Y-69914285D01*
X103621428Y-70057142D01*
X103621428Y-70342857D01*
X103550000Y-70485714D01*
X103478571Y-70557142D01*
X103335714Y-70628571D01*
X102978571Y-70628571D01*
X102835714Y-70557142D01*
X102764285Y-70485714D01*
X102692857Y-70342857D01*
X102692857Y-70057142D01*
X102764285Y-69914285D01*
X102835714Y-69842857D01*
X102978571Y-69771428D01*
X103621428Y-68842857D02*
X103621428Y-68700000D01*
X103550000Y-68557142D01*
X103478571Y-68485714D01*
X103335714Y-68414285D01*
X103050000Y-68342857D01*
X102692857Y-68342857D01*
X102407142Y-68414285D01*
X102264285Y-68485714D01*
X102192857Y-68557142D01*
X102121428Y-68700000D01*
X102121428Y-68842857D01*
X102192857Y-68985714D01*
X102264285Y-69057142D01*
X102407142Y-69128571D01*
X102692857Y-69200000D01*
X103050000Y-69200000D01*
X103335714Y-69128571D01*
X103478571Y-69057142D01*
X103550000Y-68985714D01*
X103621428Y-68842857D01*
X103621428Y-67914285D02*
X102121428Y-67414285D01*
X103621428Y-66914285D01*
X102121428Y-66414285D02*
X103621428Y-66414285D01*
X103621428Y-66057142D01*
X103550000Y-65842857D01*
X103407142Y-65700000D01*
X103264285Y-65628571D01*
X102978571Y-65557142D01*
X102764285Y-65557142D01*
X102478571Y-65628571D01*
X102335714Y-65700000D01*
X102192857Y-65842857D01*
X102121428Y-66057142D01*
X102121428Y-66414285D01*
X102264285Y-64057142D02*
X102192857Y-64128571D01*
X102121428Y-64342857D01*
X102121428Y-64485714D01*
X102192857Y-64700000D01*
X102335714Y-64842857D01*
X102478571Y-64914285D01*
X102764285Y-64985714D01*
X102978571Y-64985714D01*
X103264285Y-64914285D01*
X103407142Y-64842857D01*
X103550000Y-64700000D01*
X103621428Y-64485714D01*
X103621428Y-64342857D01*
X103550000Y-64128571D01*
X103478571Y-64057142D01*
D10*
X173585714Y-79142857D02*
X173585714Y-80057142D01*
X174157142Y-84085714D02*
X173242857Y-84085714D01*
X173700000Y-84542857D02*
X173700000Y-83628571D01*
D12*
X115114285Y-64757142D02*
X115114285Y-67042857D01*
X116242857Y-73314285D02*
X113957142Y-73314285D01*
X115100000Y-74457142D02*
X115100000Y-72171428D01*
D10*
X169900000Y-105000000D02*
G75*
G03X169900000Y-105000000I-100000J0D01*
G01*
D13*
X166550000Y-104335000D02*
X169450000Y-104335000D01*
X166550000Y-105665000D02*
X169450000Y-105665000D01*
X166580000Y-105665000D02*
X166580000Y-104335000D01*
X169420000Y-105665000D02*
X169420000Y-104335000D01*
X105345000Y-75650000D02*
X112475000Y-75650000D01*
X112475000Y-75650000D02*
X112475000Y-71350000D01*
X112475000Y-71350000D02*
X105345000Y-71350000D01*
X105345000Y-71350000D02*
X105345000Y-75650000D01*
X118580000Y-104835000D02*
X118580000Y-106165000D01*
X121420000Y-104835000D02*
X121420000Y-106165000D01*
X121450000Y-104835000D02*
X118550000Y-104835000D01*
X121450000Y-106165000D02*
X118550000Y-106165000D01*
D10*
X118300000Y-105500000D02*
G75*
G03X118300000Y-105500000I-100000J0D01*
G01*
X173900000Y-105000000D02*
G75*
G03X173900000Y-105000000I-100000J0D01*
G01*
D13*
X170550000Y-104335000D02*
X173450000Y-104335000D01*
X170550000Y-105665000D02*
X173450000Y-105665000D01*
X170580000Y-105665000D02*
X170580000Y-104335000D01*
X173420000Y-105665000D02*
X173420000Y-104335000D01*
M02*
